<svg width="173" height="60" viewBox="0 0 173 60" fill="none" xmlns="http://www.w3.org/2000/svg">
<g filter="url(#filter0_d_1948_1464)">
<path d="M166 46.1904C166 48.7627 163.95 50.8464 161.414 50.8464H11.3418C8.80728 50.8464 6.75 48.7627 6.75 46.1904V9.06049C6.75 6.48937 8.80728 4.39844 11.3418 4.39844H161.413C163.95 4.39844 165.999 6.48937 165.999 9.06049L166 46.1904Z" fill="white"/>
<path d="M58.8743 18.4187H59.6762V12.7119H61.7032V11.9902H56.8473V12.7119H58.8743V18.4187Z" fill="black"/>
<path d="M62.7656 13.2555H63.3358C63.6566 13.0461 63.7991 12.8189 63.7991 12.556C63.7991 12.1284 63.3536 11.8566 62.8725 11.8566C62.6631 11.8566 62.4805 11.8922 62.3736 11.9368V12.3956C62.4315 12.3823 62.5117 12.3689 62.6542 12.3689C62.9571 12.3689 63.2066 12.4847 63.2066 12.6852C63.2066 12.8456 63.0507 13.0327 62.7656 13.2421V13.2555ZM62.672 18.5078C63.2913 18.5078 63.8481 18.1737 64.1199 17.6658H64.1377V18.4187H64.9129V15.2156C64.9129 14.289 64.2268 13.6965 63.1309 13.6965C62.0394 13.6965 61.3756 14.3113 61.3088 15.0731L61.3044 15.1221H62.0528L62.0617 15.082C62.1508 14.6677 62.525 14.3825 63.122 14.3825C63.7679 14.3825 64.1377 14.7256 64.1377 15.2914V15.6789L62.8101 15.7547C61.7454 15.817 61.1306 16.3115 61.1306 17.1001V17.109C61.1306 17.9509 61.7499 18.5078 62.672 18.5078ZM61.9236 17.109V17.1001C61.9236 16.6679 62.28 16.3917 62.8992 16.3561L64.1377 16.2803V16.659C64.1377 17.3317 63.5764 17.8351 62.8458 17.8351C62.2889 17.8351 61.9236 17.5545 61.9236 17.109Z" fill="black"/>
<path d="M66.4252 13.0015C66.697 13.0015 66.9108 12.7832 66.9108 12.5159C66.9108 12.2442 66.697 12.0303 66.4252 12.0303C66.1579 12.0303 65.9396 12.2442 65.9396 12.5159C65.9396 12.7832 66.1579 13.0015 66.4252 13.0015ZM66.0376 18.4187H66.8128V13.7856H66.0376V18.4187Z" fill="black"/>
<path d="M71.2765 18.5078C71.8957 18.5078 72.4526 18.1737 72.7243 17.6658H72.7421V18.4187H73.5173V15.2156C73.5173 14.289 72.8312 13.6965 71.7353 13.6965C70.6439 13.6965 69.9801 14.3113 69.9133 15.0731L69.9088 15.1221H70.6572L70.6661 15.082C70.7552 14.6677 71.1295 14.3825 71.7264 14.3825C72.3724 14.3825 72.7421 14.7256 72.7421 15.2914V15.6789L71.4146 15.7547C70.3498 15.817 69.7351 16.3115 69.7351 17.1001V17.109C69.7351 17.9509 70.3543 18.5078 71.2765 18.5078ZM70.528 17.109V17.1001C70.528 16.6679 70.8844 16.3917 71.5037 16.3561L72.7421 16.2803V16.659C72.7421 17.3317 72.1808 17.8351 71.4502 17.8351C70.8933 17.8351 70.528 17.5545 70.528 17.109Z" fill="black"/>
<path d="M74.5931 19.9779H75.3682V17.6436H75.3861C75.6756 18.1782 76.2147 18.5078 76.8695 18.5078C78.0323 18.5078 78.8253 17.5678 78.8253 16.1066V16.1022C78.8253 14.6409 78.0412 13.6965 76.8562 13.6965C76.1924 13.6965 75.6756 14.0306 75.3861 14.5697H75.3682V13.7856H74.5931V19.9779ZM76.7047 17.8218C75.9251 17.8218 75.3638 17.1402 75.3638 16.1066V16.1022C75.3638 15.0642 75.9206 14.3825 76.7047 14.3825C77.5244 14.3825 78.0323 15.0374 78.0323 16.1022V16.1066C78.0323 17.1624 77.5244 17.8218 76.7047 17.8218Z" fill="black"/>
<path d="M79.7006 19.9779H80.4757V17.6436H80.4935C80.7831 18.1782 81.3222 18.5078 81.977 18.5078C83.1398 18.5078 83.9328 17.5678 83.9328 16.1066V16.1022C83.9328 14.6409 83.1487 13.6965 81.9637 13.6965C81.2999 13.6965 80.7831 14.0306 80.4935 14.5697H80.4757V13.7856H79.7006V19.9779ZM81.8122 17.8218C81.0326 17.8218 80.4713 17.1402 80.4713 16.1066V16.1022C80.4713 15.0642 81.0281 14.3825 81.8122 14.3825C82.6319 14.3825 83.1398 15.0374 83.1398 16.1022V16.1066C83.1398 17.1624 82.6319 17.8218 81.8122 17.8218Z" fill="black"/>
<path d="M88.2761 18.5078C88.4276 18.5078 88.5924 18.49 88.6904 18.4766V17.8485C88.6236 17.8529 88.5345 17.8663 88.441 17.8663C88.0267 17.8663 87.8084 17.7282 87.8084 17.2337V14.4271H88.6904V13.7856H87.8084V12.5338H87.0065V13.7856H86.3293V14.4271H87.0065V17.2382C87.0065 18.1247 87.4252 18.5078 88.2761 18.5078Z" fill="black"/>
<path d="M89.6148 18.4187H90.3899V15.5587C90.3899 14.8548 90.7819 14.436 91.3834 14.436C91.5705 14.436 91.7353 14.4583 91.7977 14.4806V13.7277C91.7353 13.7188 91.6195 13.6965 91.4858 13.6965C90.9646 13.6965 90.5637 14.0351 90.4077 14.5697H90.3899V13.7856H89.6148V18.4187Z" fill="black"/>
<path d="M92.8289 13.2555H93.4971L94.1832 12.3288L94.8693 13.2555H95.5375L94.553 11.919H93.8134L92.8289 13.2555ZM94.2055 18.5078C95.2167 18.5078 95.9741 17.9019 96.1255 17.1357L96.1345 17.0911H95.3727L95.3593 17.1312C95.2257 17.5277 94.8113 17.8218 94.2233 17.8218C93.3991 17.8218 92.8735 17.2649 92.8556 16.3115H96.1924V16.0264C96.1924 14.6365 95.4217 13.6965 94.1565 13.6965C92.8913 13.6965 92.0716 14.681 92.0716 16.1155V16.12C92.0716 17.5767 92.8735 18.5078 94.2055 18.5078ZM94.152 14.3825C94.8292 14.3825 95.3281 14.8058 95.4039 15.7057H92.869C92.9536 14.8414 93.4793 14.3825 94.152 14.3825Z" fill="black"/>
<path d="M97.0677 18.4187H97.8428V15.6923C97.8428 14.9038 98.3195 14.3825 99.0501 14.3825C99.7629 14.3825 100.115 14.7969 100.115 15.5497V18.4187H100.89V15.4116C100.89 14.3558 100.302 13.6965 99.2862 13.6965C98.5824 13.6965 98.1101 14.0128 97.8607 14.4449H97.8428V13.7856H97.0677V18.4187Z" fill="black"/>
<path d="M41.7946 26.7505C41.76 22.9659 44.9426 21.1246 45.0881 21.0389C43.2857 18.4521 40.492 18.0986 39.5102 18.0704C37.1638 17.8274 34.8878 19.4525 33.6925 19.4525C32.4734 19.4525 30.6328 18.0939 28.649 18.1338C26.0962 18.1726 23.7081 19.6275 22.3983 21.8867C19.6952 26.4933 21.7112 33.2628 24.3009 36.9864C25.5964 38.81 27.1102 40.8461 29.0916 40.7745C31.03 40.6958 31.7541 39.5579 34.0933 39.5579C36.4111 39.5579 37.091 40.7745 39.1118 40.7287C41.1922 40.6958 42.502 38.8969 43.7521 37.0568C45.2492 34.9667 45.8504 32.9082 45.8743 32.8025C45.8253 32.7861 41.834 31.2866 41.7946 26.7505Z" fill="black"/>
<path d="M37.9774 15.621C39.0199 14.3375 39.7333 12.5914 39.5353 10.8195C38.0263 10.8852 36.1391 11.8469 35.0524 13.1022C34.0909 14.2083 33.2321 16.0214 33.4539 17.7264C35.149 17.8508 36.8894 16.8844 37.9774 15.621Z" fill="black"/>
<path d="M69.8476 40.5125H67.1385L65.6546 35.9224H60.4965L59.083 40.5125H56.4455L61.5558 24.8857H64.7122L69.8476 40.5125ZM65.2072 33.9966L63.8653 29.9161C63.7233 29.4993 63.4573 28.5176 63.0648 26.9723H63.0171C62.8608 27.6369 62.6091 28.6186 62.2632 29.9161L60.9451 33.9966H65.2072Z" fill="black"/>
<path d="M82.9896 34.74C82.9896 36.6564 82.4635 38.1711 81.4114 39.2831C80.469 40.273 79.2988 40.7674 77.9019 40.7674C76.3941 40.7674 75.311 40.2343 74.6513 39.1681H74.6036V45.1039H72.0604V32.954C72.0604 31.7492 72.0282 30.5127 71.9661 29.2445H74.2028L74.3447 31.0306H74.3925C75.2406 29.6849 76.5277 29.0132 78.255 29.0132C79.6054 29.0132 80.7327 29.5381 81.6345 30.589C82.5387 31.6412 82.9896 33.0244 82.9896 34.74ZM80.3986 34.8316C80.3986 33.7348 80.1481 32.8307 79.6447 32.1191C79.0948 31.377 78.3564 31.0059 77.4307 31.0059C76.8033 31.0059 76.2331 31.2126 75.7237 31.62C75.2132 32.031 74.8792 32.5676 74.7229 33.2323C74.6442 33.5423 74.6048 33.7959 74.6048 33.9955V35.8743C74.6048 36.6939 74.8601 37.3856 75.3706 37.9504C75.8812 38.5152 76.5444 38.797 77.3604 38.797C78.3183 38.797 79.0638 38.433 79.597 37.7073C80.1314 36.9804 80.3986 36.0223 80.3986 34.8316Z" fill="black"/>
<path d="M96.1554 34.74C96.1554 36.6564 95.6294 38.1711 94.576 39.2831C93.6348 40.273 92.4646 40.7674 91.0678 40.7674C89.56 40.7674 88.4768 40.2343 87.8184 39.1681H87.7706V45.1039H85.2274V32.954C85.2274 31.7492 85.1952 30.5127 85.1332 29.2445H87.3698L87.5118 31.0306H87.5595C88.4064 29.6849 89.6936 29.0132 91.4221 29.0132C92.7712 29.0132 93.8985 29.5381 94.8027 30.589C95.7033 31.6412 96.1554 33.0244 96.1554 34.74ZM93.5645 34.8316C93.5645 33.7348 93.3128 32.8307 92.8094 32.1191C92.2595 31.377 91.5234 31.0059 90.5966 31.0059C89.9679 31.0059 89.3989 31.2126 88.8884 31.62C88.3778 32.031 88.045 32.5676 87.8887 33.2323C87.8112 33.5423 87.7706 33.7959 87.7706 33.9955V35.8743C87.7706 36.6939 88.0259 37.3856 88.5341 37.9504C89.0446 38.514 89.7079 38.797 90.5262 38.797C91.4841 38.797 92.2296 38.433 92.7629 37.7073C93.2973 36.9804 93.5645 36.0223 93.5645 34.8316Z" fill="black"/>
<path d="M110.876 36.1303C110.876 37.4595 110.407 38.541 109.466 39.3759C108.431 40.2883 106.992 40.7439 105.141 40.7439C103.433 40.7439 102.064 40.4198 101.027 39.7705L101.616 37.6838C102.733 38.3485 103.958 38.6819 105.293 38.6819C106.251 38.6819 106.996 38.4682 107.532 38.0432C108.065 37.6181 108.331 37.0474 108.331 36.3358C108.331 35.7017 108.112 35.1674 107.672 34.7341C107.234 34.3008 106.503 33.8981 105.481 33.5258C102.702 32.5054 101.313 31.0106 101.313 29.0449C101.313 27.7603 101.8 26.707 102.775 25.8874C103.746 25.0666 105.041 24.6567 106.661 24.6567C108.106 24.6567 109.306 24.9045 110.264 25.3989L109.628 27.4397C108.733 26.9606 107.722 26.7211 106.59 26.7211C105.695 26.7211 104.996 26.9383 104.495 27.3704C104.071 27.7568 103.859 28.2276 103.859 28.7854C103.859 29.4031 104.101 29.9138 104.588 30.3154C105.011 30.6865 105.781 31.0881 106.897 31.5214C108.263 32.0627 109.266 32.6956 109.912 33.4213C110.555 34.1447 110.876 35.05 110.876 36.1303Z" fill="black"/>
<path d="M119.284 31.1233H116.481V36.5942C116.481 37.9856 116.975 38.6808 117.965 38.6808C118.419 38.6808 118.796 38.642 119.095 38.5645L119.165 40.4656C118.664 40.65 118.004 40.7428 117.187 40.7428C116.183 40.7428 115.398 40.441 114.831 39.8386C114.267 39.235 113.983 38.2228 113.983 36.8008V31.121H112.313V29.2422H113.983V27.1791L116.481 26.4369V29.2422H119.284V31.1233Z" fill="black"/>
<path d="M131.932 34.7858C131.932 36.5178 131.429 37.9398 130.425 39.0519C129.371 40.1968 127.973 40.7674 126.23 40.7674C124.551 40.7674 123.214 40.2191 122.216 39.1223C121.219 38.0256 120.72 36.6411 120.72 34.9725C120.72 33.2264 121.233 31.7962 122.263 30.6842C123.29 29.571 124.676 29.0144 126.419 29.0144C128.098 29.0144 129.45 29.5628 130.47 30.6607C131.446 31.7257 131.932 33.1008 131.932 34.7858ZM129.294 34.8668C129.294 33.8276 129.068 32.9364 128.611 32.1931C128.078 31.2936 127.316 30.8451 126.328 30.8451C125.306 30.8451 124.529 31.2948 123.996 32.1931C123.539 32.9376 123.314 33.8429 123.314 34.9138C123.314 35.953 123.539 36.8443 123.996 37.5864C124.546 38.4859 125.314 38.9344 126.306 38.9344C127.277 38.9344 128.039 38.4765 128.589 37.5629C129.058 36.8055 129.294 35.9049 129.294 34.8668Z" fill="black"/>
<path d="M140.199 31.4462C139.947 31.4004 139.679 31.377 139.397 31.377C138.503 31.377 137.811 31.7093 137.324 32.3751C136.901 32.9622 136.688 33.7043 136.688 34.6003V40.5126H134.146L134.17 32.7931C134.17 31.4944 134.138 30.3119 134.075 29.2457H136.29L136.383 31.4016H136.453C136.722 30.6607 137.145 30.0641 137.725 29.6168C138.292 29.214 138.904 29.0132 139.563 29.0132C139.798 29.0132 140.011 29.0296 140.199 29.059V31.4462Z" fill="black"/>
<path d="M151.573 34.3454C151.573 34.794 151.543 35.1721 151.48 35.4809H143.85C143.88 36.5941 144.249 37.4454 144.957 38.0325C145.6 38.5574 146.432 38.8205 147.453 38.8205C148.583 38.8205 149.613 38.6432 150.54 38.2874L150.939 40.0252C149.855 40.4902 148.577 40.7216 147.101 40.7216C145.326 40.7216 143.933 40.2072 142.919 39.1798C141.907 38.1523 141.4 36.7726 141.4 35.0417C141.4 33.3426 141.871 31.9276 142.815 30.7992C143.803 29.5944 145.138 28.992 146.817 28.992C148.467 28.992 149.716 29.5944 150.564 30.7992C151.236 31.7562 151.573 32.9398 151.573 34.3454ZM149.148 33.6961C149.165 32.9539 148.999 32.3128 148.654 31.7715C148.214 31.0751 147.538 30.7276 146.628 30.7276C145.796 30.7276 145.12 31.0669 144.603 31.748C144.18 32.2893 143.928 32.9387 143.85 33.6949H149.148V33.6961Z" fill="black"/>
</g>
<defs>
<filter id="filter0_d_1948_1464" x="0.11458" y="0.2513" width="172.521" height="59.7186" filterUnits="userSpaceOnUse" color-interpolation-filters="sRGB">
<feFlood flood-opacity="0" result="BackgroundImageFix"/>
<feColorMatrix in="SourceAlpha" type="matrix" values="0 0 0 0 0 0 0 0 0 0 0 0 0 0 0 0 0 0 127 0" result="hardAlpha"/>
<feOffset dy="2.48828"/>
<feGaussianBlur stdDeviation="3.31771"/>
<feComposite in2="hardAlpha" operator="out"/>
<feColorMatrix type="matrix" values="0 0 0 0 0.00392157 0 0 0 0 0.0705882 0 0 0 0 0.133333 0 0 0 0.11 0"/>
<feBlend mode="normal" in2="BackgroundImageFix" result="effect1_dropShadow_1948_1464"/>
<feBlend mode="normal" in="SourceGraphic" in2="effect1_dropShadow_1948_1464" result="shape"/>
</filter>
</defs>
</svg>
