<svg width="56" height="56" viewBox="0 0 56 56" fill="none" xmlns="http://www.w3.org/2000/svg">
<path d="M17.4999 5.83333C17.4999 4.54467 16.4553 3.5 15.1666 3.5C13.8779 3.5 12.8333 4.54467 12.8333 5.83333V8.16667C12.8333 9.45533 13.8779 10.5 15.1666 10.5C16.4553 10.5 17.4999 9.45533 17.4999 8.16667V5.83333Z" fill="url(#paint0_linear_1948_521)"/>
<path d="M43.1667 5.83333C43.1667 4.54467 42.122 3.5 40.8333 3.5C39.5447 3.5 38.5 4.54467 38.5 5.83333V8.16667C38.5 9.45533 39.5447 10.5 40.8333 10.5C42.122 10.5 43.1667 9.45533 43.1667 8.16667V5.83333Z" fill="url(#paint1_linear_1948_521)"/>
<path d="M4.66675 21V47.8333C4.66675 50.4105 6.75625 52.5 9.33342 52.5H46.6668C49.2439 52.5 51.3334 50.4105 51.3334 47.8333V21H4.66675ZM18.6667 44.3333C18.6667 45.6225 17.6226 46.6667 16.3334 46.6667H14.0001C12.7109 46.6667 11.6667 45.6225 11.6667 44.3333V42C11.6667 40.7108 12.7109 39.6667 14.0001 39.6667H16.3334C17.6226 39.6667 18.6667 40.7108 18.6667 42V44.3333ZM18.6667 31.5C18.6667 32.7892 17.6226 33.8333 16.3334 33.8333H14.0001C12.7109 33.8333 11.6667 32.7892 11.6667 31.5V29.1667C11.6667 27.8775 12.7109 26.8333 14.0001 26.8333H16.3334C17.6226 26.8333 18.6667 27.8775 18.6667 29.1667V31.5ZM31.5001 44.3333C31.5001 45.6225 30.4559 46.6667 29.1667 46.6667H26.8334C25.5442 46.6667 24.5001 45.6225 24.5001 44.3333V42C24.5001 40.7108 25.5442 39.6667 26.8334 39.6667H29.1667C30.4559 39.6667 31.5001 40.7108 31.5001 42V44.3333ZM31.5001 31.5C31.5001 32.7892 30.4559 33.8333 29.1667 33.8333H26.8334C25.5442 33.8333 24.5001 32.7892 24.5001 31.5V29.1667C24.5001 27.8775 25.5442 26.8333 26.8334 26.8333H29.1667C30.4559 26.8333 31.5001 27.8775 31.5001 29.1667V31.5ZM44.3334 44.3333C44.3334 45.6225 43.2892 46.6667 42.0001 46.6667H39.6668C38.3776 46.6667 37.3334 45.6225 37.3334 44.3333V42C37.3334 40.7108 38.3776 39.6667 39.6668 39.6667H42.0001C43.2892 39.6667 44.3334 40.7108 44.3334 42V44.3333ZM44.3334 31.5C44.3334 32.7892 43.2892 33.8333 42.0001 33.8333H39.6668C38.3776 33.8333 37.3334 32.7892 37.3334 31.5V29.1667C37.3334 27.8775 38.3776 26.8333 39.6668 26.8333H42.0001C43.2892 26.8333 44.3334 27.8775 44.3334 29.1667V31.5Z" fill="url(#paint2_linear_1948_521)"/>
<path d="M51.3334 18.6667V11.6667C51.3334 9.0895 49.2439 7 46.6668 7H45.5001V8.16667C45.5001 10.7403 43.4071 12.8333 40.8334 12.8333C38.2598 12.8333 36.1667 10.7403 36.1667 8.16667V7H19.8334V8.16667C19.8334 10.7403 17.7404 12.8333 15.1667 12.8333C12.5931 12.8333 10.5001 10.7403 10.5001 8.16667V7H9.33342C6.75625 7 4.66675 9.0895 4.66675 11.6667V18.6667H51.3334Z" fill="url(#paint3_linear_1948_521)"/>
<defs>
<linearGradient id="paint0_linear_1948_521" x1="12.8333" y1="3.5" x2="19.1211" y2="4.56233" gradientUnits="userSpaceOnUse">
<stop stop-color="#CC002E"/>
<stop offset="0.484375" stop-color="#EC1848"/>
<stop offset="1" stop-color="#9A268F"/>
</linearGradient>
<linearGradient id="paint1_linear_1948_521" x1="38.5" y1="3.5" x2="44.7879" y2="4.56233" gradientUnits="userSpaceOnUse">
<stop stop-color="#CC002E"/>
<stop offset="0.484375" stop-color="#EC1848"/>
<stop offset="1" stop-color="#9A268F"/>
</linearGradient>
<linearGradient id="paint2_linear_1948_521" x1="4.66675" y1="21" x2="61.3502" y2="42.2815" gradientUnits="userSpaceOnUse">
<stop stop-color="#CC002E"/>
<stop offset="0.484375" stop-color="#EC1848"/>
<stop offset="1" stop-color="#9A268F"/>
</linearGradient>
<linearGradient id="paint3_linear_1948_521" x1="4.66675" y1="7" x2="36.5635" y2="39.3337" gradientUnits="userSpaceOnUse">
<stop stop-color="#CC002E"/>
<stop offset="0.484375" stop-color="#EC1848"/>
<stop offset="1" stop-color="#9A268F"/>
</linearGradient>
</defs>
</svg>
