<svg width="46" height="56" viewBox="0 0 46 56" fill="none" xmlns="http://www.w3.org/2000/svg">
<path d="M42.7925 6.33917H41.1582V46.5673C41.1582 49.2398 38.9869 51.4151 36.3195 51.4151H19.7605H6.59277V52.9064C6.59277 54.614 7.97609 55.9999 9.68043 55.9999H26.2335H42.7866C44.491 55.9999 45.8742 54.614 45.8742 52.9064V9.43274C45.8743 7.72514 44.4968 6.33917 42.7925 6.33917Z" fill="url(#paint0_linear_1948_511)"/>
<path d="M19.7607 49.6608H36.3138C38.0181 49.6608 39.4014 48.2749 39.4014 46.5673V6.33918V3.09357C39.4014 1.38596 38.0181 0 36.3138 0H19.7607H14.2566V1.02339C14.2682 1.12865 14.2741 1.23977 14.2741 1.35088V8.09357V9.82456C14.2741 12.2281 12.3246 14.1813 9.92568 14.1813H8.198H1.46819C1.38064 14.1813 1.28725 14.1754 1.1997 14.1696H0.125732V46.5673C0.125732 48.2749 1.50905 49.6608 3.21339 49.6608H6.59872H19.7607ZM20.3852 39.1462H9.59299C8.78751 39.1462 8.13379 38.4912 8.13379 37.6842C8.13379 36.8771 8.78751 36.2222 9.59299 36.2222H20.391C21.1965 36.2222 21.8502 36.8771 21.8502 37.6842C21.8502 38.4912 21.1907 39.1462 20.3852 39.1462ZM31.1832 31.6843H9.59299C8.78751 31.6843 8.13379 31.0292 8.13379 30.2223C8.13379 29.4152 8.78751 28.7603 9.59299 28.7603H31.1832C31.9887 28.7603 32.6424 29.4152 32.6424 30.2223C32.6424 31.0292 31.9887 31.6843 31.1832 31.6843ZM9.59299 20.8363H31.1832C31.9887 20.8363 32.6424 21.4912 32.6424 22.2982C32.6424 23.1053 31.9887 23.7602 31.1832 23.7602H9.59299C8.78751 23.7602 8.13379 23.1053 8.13379 22.2982C8.13379 21.4912 8.78751 20.8363 9.59299 20.8363Z" fill="url(#paint1_linear_1948_511)"/>
<path d="M1.46808 12.4269H9.92558C9.93141 12.4269 9.94309 12.4269 9.94892 12.4269C11.3614 12.4152 12.5054 11.269 12.5171 9.8538C12.5171 9.84795 12.5171 9.83626 12.5171 9.83041V1.35088C12.5171 0.567251 11.8751 0.0467834 11.2097 0.0467834C10.8887 0.0467834 10.5677 0.163743 10.2992 0.432748L0.545874 10.2047C-0.271275 11.0234 0.306566 12.4269 1.46808 12.4269Z" fill="url(#paint2_linear_1948_511)"/>
<defs>
<linearGradient id="paint0_linear_1948_511" x1="6.59277" y1="6.33917" x2="58.9283" y2="16.8302" gradientUnits="userSpaceOnUse">
<stop stop-color="#CC002E"/>
<stop offset="0.484375" stop-color="#EC1848"/>
<stop offset="1" stop-color="#9A268F"/>
</linearGradient>
<linearGradient id="paint1_linear_1948_511" x1="0.125732" y1="0" x2="52.4542" y2="10.4881" gradientUnits="userSpaceOnUse">
<stop stop-color="#CC002E"/>
<stop offset="0.484375" stop-color="#EC1848"/>
<stop offset="1" stop-color="#9A268F"/>
</linearGradient>
<linearGradient id="paint2_linear_1948_511" x1="0.16333" y1="0.0467834" x2="16.2549" y2="4.1161" gradientUnits="userSpaceOnUse">
<stop stop-color="#CC002E"/>
<stop offset="0.484375" stop-color="#EC1848"/>
<stop offset="1" stop-color="#9A268F"/>
</linearGradient>
</defs>
</svg>
