<svg width="52" height="53" viewBox="0 0 52 53" fill="none" xmlns="http://www.w3.org/2000/svg">
<ellipse cx="25.8559" cy="26.4811" rx="25.7309" ry="25.7311" fill="#E7252B"/>
<path d="M16.25 36.3753C19.625 36.3753 24.125 35.2503 24.125 27.3753V18.3753C24.125 16.9691 23.2745 16.1062 21.875 16.1253H17.375C15.9688 16.1253 15.125 16.9691 15.125 18.3438V25.1253C15.125 26.5316 15.9688 27.3753 17.375 27.3753C18.5 27.3753 18.5 27.3753 18.5 28.5003V29.6253C18.5 30.7503 17.375 31.8753 16.25 31.8753C15.125 31.8753 15.125 31.8843 15.125 33.0352V35.2503C15.125 36.3753 15.125 36.3753 16.25 36.3753Z" stroke="white" stroke-width="2.25" stroke-linecap="round" stroke-linejoin="round"/>
<path d="M29.75 36.3753C33.125 36.3753 37.625 35.2503 37.625 27.3753V18.3753C37.625 16.9691 36.7734 16.1062 35.375 16.1253H30.875C29.4688 16.1253 28.625 16.9691 28.625 18.3438V25.1253C28.625 26.5316 29.4688 27.3753 30.875 27.3753H31.7188C31.7188 29.9066 32 31.8753 28.625 31.8753V35.2503C28.625 36.3753 28.625 36.3753 29.75 36.3753Z" stroke="white" stroke-width="2.25" stroke-linecap="round" stroke-linejoin="round"/>
</svg>
