<svg width="173" height="61" viewBox="0 0 173 61" fill="none" xmlns="http://www.w3.org/2000/svg">
<g filter="url(#filter0_d_1948_1465)">
<path d="M160.102 51.2477H12.6481C9.40564 51.2477 6.75 48.6336 6.75 45.4417V10.6058C6.75 7.41395 9.40564 4.7998 12.6481 4.7998H160.102C163.344 4.7998 166 7.41395 166 10.6058V45.4417C166 48.6336 163.344 51.2477 160.102 51.2477Z" fill="white"/>
<path d="M57.713 18.8199H58.5149V13.1132H60.5419V12.3915H55.686V13.1132H57.713V18.8199Z" fill="black"/>
<path d="M61.6043 13.6567H62.1746C62.4953 13.4473 62.6379 13.2201 62.6379 12.9572C62.6379 12.5296 62.1924 12.2578 61.7112 12.2578C61.5019 12.2578 61.3192 12.2935 61.2123 12.338V12.7969C61.2702 12.7835 61.3504 12.7701 61.4929 12.7701C61.7959 12.7701 62.0454 12.886 62.0454 13.0864C62.0454 13.2468 61.8894 13.4339 61.6043 13.6433V13.6567ZM61.5108 18.909C62.13 18.909 62.6869 18.5749 62.9586 18.067H62.9764V18.8199H63.7516V15.6168C63.7516 14.6902 63.0655 14.0977 61.9696 14.0977C60.8782 14.0977 60.2144 14.7125 60.1476 15.4743L60.1431 15.5233H60.8915L60.9004 15.4832C60.9895 15.0689 61.3638 14.7838 61.9607 14.7838C62.6067 14.7838 62.9764 15.1268 62.9764 15.6926V16.0801L61.6489 16.1559C60.5841 16.2182 59.9694 16.7127 59.9694 17.5013V17.5102C59.9694 18.3522 60.5886 18.909 61.5108 18.909ZM60.7623 17.5102V17.5013C60.7623 17.0691 61.1187 16.7929 61.738 16.7573L62.9764 16.6816V17.0602C62.9764 17.7329 62.4151 18.2363 61.6845 18.2363C61.1276 18.2363 60.7623 17.9557 60.7623 17.5102Z" fill="black"/>
<path d="M65.264 13.4027C65.5357 13.4027 65.7495 13.1844 65.7495 12.9171C65.7495 12.6454 65.5357 12.4316 65.264 12.4316C64.9967 12.4316 64.7784 12.6454 64.7784 12.9171C64.7784 13.1844 64.9967 13.4027 65.264 13.4027ZM64.8764 18.8199H65.6515V14.1868H64.8764V18.8199Z" fill="black"/>
<path d="M70.1152 18.909C70.7344 18.909 71.2913 18.5749 71.5631 18.067H71.5809V18.8199H72.356V15.6168C72.356 14.6902 71.67 14.0977 70.5741 14.0977C69.4826 14.0977 68.8188 14.7125 68.752 15.4743L68.7475 15.5233H69.496L69.5049 15.4832C69.594 15.0689 69.9682 14.7838 70.5652 14.7838C71.2111 14.7838 71.5809 15.1268 71.5809 15.6926V16.0801L70.2533 16.1559C69.1886 16.2182 68.5738 16.7127 68.5738 17.5013V17.5102C68.5738 18.3522 69.193 18.909 70.1152 18.909ZM69.3668 17.5102V17.5013C69.3668 17.0691 69.7232 16.7929 70.3424 16.7573L71.5809 16.6816V17.0602C71.5809 17.7329 71.0196 18.2363 70.2889 18.2363C69.7321 18.2363 69.3668 17.9557 69.3668 17.5102Z" fill="black"/>
<path d="M73.4318 20.3792H74.207V18.0448H74.2248C74.5144 18.5794 75.0534 18.909 75.7083 18.909C76.871 18.909 77.664 17.969 77.664 16.5078V16.5034C77.664 15.0421 76.8799 14.0977 75.6949 14.0977C75.0311 14.0977 74.5144 14.4318 74.2248 14.9709H74.207V14.1868H73.4318V20.3792ZM75.5434 18.223C74.7638 18.223 74.2025 17.5414 74.2025 16.5078V16.5034C74.2025 15.4654 74.7594 14.7838 75.5434 14.7838C76.3632 14.7838 76.871 15.4386 76.871 16.5034V16.5078C76.871 17.5636 76.3632 18.223 75.5434 18.223Z" fill="black"/>
<path d="M78.5393 20.3792H79.3145V18.0448H79.3323C79.6219 18.5794 80.1609 18.909 80.8158 18.909C81.9785 18.909 82.7715 17.969 82.7715 16.5078V16.5034C82.7715 15.0421 81.9874 14.0977 80.8024 14.0977C80.1386 14.0977 79.6219 14.4318 79.3323 14.9709H79.3145V14.1868H78.5393V20.3792ZM80.6509 18.223C79.8713 18.223 79.31 17.5414 79.31 16.5078V16.5034C79.31 15.4654 79.8669 14.7838 80.6509 14.7838C81.4706 14.7838 81.9785 15.4386 81.9785 16.5034V16.5078C81.9785 17.5636 81.4706 18.223 80.6509 18.223Z" fill="black"/>
<path d="M87.1149 18.909C87.2663 18.909 87.4312 18.8912 87.5292 18.8778V18.2497C87.4624 18.2542 87.3733 18.2675 87.2797 18.2675C86.8654 18.2675 86.6471 18.1294 86.6471 17.6349V14.8283H87.5292V14.1868H86.6471V12.935H85.8452V14.1868H85.1681V14.8283H85.8452V17.6394C85.8452 18.5259 86.264 18.909 87.1149 18.909Z" fill="black"/>
<path d="M88.4535 18.8199H89.2286V15.9599C89.2286 15.256 89.6207 14.8372 90.2221 14.8372C90.4092 14.8372 90.574 14.8595 90.6364 14.8818V14.1289C90.574 14.12 90.4582 14.0977 90.3246 14.0977C89.8033 14.0977 89.4024 14.4363 89.2465 14.9709H89.2286V14.1868H88.4535V18.8199Z" fill="black"/>
<path d="M91.6676 13.6567H92.3359L93.0219 12.73L93.708 13.6567H94.3762L93.3917 12.3202H92.6522L91.6676 13.6567ZM93.0442 18.909C94.0555 18.909 94.8128 18.3032 94.9643 17.5369L94.9732 17.4924H94.2114L94.198 17.5325C94.0644 17.9289 93.6501 18.223 93.062 18.223C92.2379 18.223 91.7122 17.6661 91.6944 16.7127H95.0311V16.4276C95.0311 15.0377 94.2604 14.0977 92.9952 14.0977C91.73 14.0977 90.9103 15.0822 90.9103 16.5167V16.5212C90.9103 17.9779 91.7122 18.909 93.0442 18.909ZM92.9907 14.7838C93.6679 14.7838 94.1668 15.207 94.2426 16.1069H91.7077C91.7924 15.2426 92.3181 14.7838 92.9907 14.7838Z" fill="black"/>
<path d="M95.9064 18.8199H96.6816V16.0935C96.6816 15.305 97.1582 14.7838 97.8889 14.7838C98.6016 14.7838 98.9536 15.1981 98.9536 15.951V18.8199H99.7287V15.8128C99.7287 14.757 99.1407 14.0977 98.125 14.0977C97.4211 14.0977 96.9489 14.414 96.6994 14.8461H96.6816V14.1868H95.9064V18.8199Z" fill="black"/>
<path d="M18.1745 13.5535C17.828 13.9105 17.6274 14.4665 17.6274 15.1864V40.8663C17.6274 41.5863 17.828 42.1422 18.1745 42.4993L18.26 42.5776L32.8786 28.1933V27.8536L18.26 13.4693L18.1745 13.5535Z" fill="black"/>
<path d="M39.5156 32.9902L34.6482 28.193V27.8534L39.5215 23.0562L39.6307 23.1186L45.402 26.3511C47.0491 27.2684 47.0491 28.778 45.402 29.7011L39.6307 32.9278L39.5156 32.9902Z" fill="black"/>
<path d="M38.7454 33.8211L33.7629 28.9165L19.0588 43.3923C19.6059 43.9584 20.498 44.0266 21.5125 43.4605L38.7454 33.8211Z" fill="black"/>
<path d="M38.7454 22.2253L21.5125 12.5859C20.498 12.0256 19.6059 12.0938 19.0588 12.6599L33.7629 27.1299L38.7454 22.2253Z" fill="black"/>
<path d="M87.1244 30.0583C84.3538 30.0583 82.0904 32.134 82.0904 34.9978C82.0904 37.8384 84.3538 39.9358 87.1244 39.9358C89.901 39.9358 92.1644 37.8384 92.1644 34.9978C92.1644 32.134 89.901 30.0583 87.1244 30.0583ZM87.1244 37.9908C85.6042 37.9908 84.2963 36.7556 84.2963 34.9978C84.2963 33.2168 85.6042 32.0034 87.1244 32.0034C88.6447 32.0034 89.9585 33.2168 89.9585 34.9978C89.9585 36.7556 88.6447 37.9908 87.1244 37.9908ZM76.1406 30.0583C73.364 30.0583 71.1065 32.134 71.1065 34.9978C71.1065 37.8384 73.364 39.9358 76.1406 39.9358C78.9157 39.9358 81.1747 37.8384 81.1747 34.9978C81.1747 32.134 78.9157 30.0583 76.1406 30.0583ZM76.1406 37.9908C74.6189 37.9908 73.3065 36.7556 73.3065 34.9978C73.3065 33.2168 74.6189 32.0034 76.1406 32.0034C77.6608 32.0034 78.9688 33.2168 78.9688 34.9978C78.9688 36.7556 77.6608 37.9908 76.1406 37.9908ZM63.0703 31.5723V33.6711H68.1619C68.0129 34.8439 67.6148 35.7061 67.0044 36.307C66.2612 37.0328 65.1037 37.8384 63.0703 37.8384C59.9369 37.8384 57.4833 35.3491 57.4833 32.2646C57.4833 29.1802 59.9369 26.6909 63.0703 26.6909C64.7645 26.6909 65.9973 27.3426 66.907 28.1874L68.4096 26.7083C67.1371 25.5123 65.4443 24.5935 63.0703 24.5935C58.7735 24.5935 55.1624 28.035 55.1624 32.2646C55.1624 36.4943 58.7735 39.9358 63.0703 39.9358C65.3927 39.9358 67.1371 39.1868 68.5084 37.7818C69.9136 36.3985 70.3516 34.4535 70.3516 32.883C70.3516 32.3953 70.3103 31.9467 70.2365 31.5723H63.0703ZM116.516 33.1994C116.102 32.0948 114.824 30.0583 112.22 30.0583C109.639 30.0583 107.491 32.06 107.491 34.9978C107.491 37.7644 109.617 39.9358 112.467 39.9358C114.772 39.9358 116.102 38.5525 116.649 37.7469L114.939 36.6249C114.368 37.4465 113.591 37.9908 112.467 37.9908C111.351 37.9908 110.55 37.4871 110.037 36.4943L116.748 33.7611L116.516 33.1994ZM109.675 34.8439C109.617 32.9396 111.177 31.9642 112.295 31.9642C113.171 31.9642 113.914 32.3953 114.162 33.0121L109.675 34.8439ZM104.22 39.6353H106.426V25.1204H104.22V39.6353ZM100.608 31.1586H100.534C100.038 30.5809 99.0932 30.0583 97.8959 30.0583C95.3833 30.0583 93.086 32.2298 93.086 35.0138C93.086 37.7818 95.3833 39.9358 97.8959 39.9358C99.0932 39.9358 100.038 39.4089 100.534 38.8138H100.608V39.5221C100.608 41.4105 99.5828 42.4251 97.9298 42.4251C96.5821 42.4251 95.746 41.4671 95.401 40.6615L93.4826 41.4497C94.0356 42.759 95.4998 44.3701 97.9298 44.3701C100.516 44.3701 102.698 42.8722 102.698 39.2275V30.3588H100.608V31.1586ZM98.0847 37.9908C96.5644 37.9908 95.2919 36.7381 95.2919 35.0138C95.2919 33.2734 96.5644 32.0034 98.0847 32.0034C99.5828 32.0034 100.764 33.2734 100.764 35.0138C100.764 36.7381 99.5828 37.9908 98.0847 37.9908ZM126.844 25.1204H121.568V39.6353H123.768V34.1356H126.844C129.287 34.1356 131.683 32.3953 131.683 29.6273C131.683 26.8607 129.281 25.1204 126.844 25.1204ZM126.902 32.1166H123.768V27.1394H126.902C128.544 27.1394 129.482 28.482 129.482 29.6273C129.482 30.7507 128.544 32.1166 126.902 32.1166ZM140.501 30.0308C138.912 30.0308 137.259 30.7217 136.579 32.253L138.531 33.0586C138.951 32.253 139.724 31.9917 140.541 31.9917C141.682 31.9917 142.84 32.6667 142.858 33.8584V34.0108C142.459 33.7843 141.607 33.449 140.559 33.449C138.456 33.449 136.314 34.5885 136.314 36.7149C136.314 38.6599 138.036 39.9126 139.972 39.9126C141.452 39.9126 142.269 39.255 142.782 38.4901H142.858V39.6121H144.982V34.0442C144.982 31.4707 143.03 30.0308 140.501 30.0308ZM140.236 37.985C139.516 37.985 138.514 37.6337 138.514 36.7556C138.514 35.6321 139.764 35.201 140.846 35.201C141.815 35.201 142.269 35.4115 142.858 35.6887C142.685 37.0328 141.51 37.985 140.236 37.985ZM152.724 30.3486L150.195 36.6409H150.12L147.505 30.3486H145.133L149.061 39.1418L146.82 44.0348H149.118L155.171 30.3486H152.724ZM132.893 39.6353H135.098V25.1204H132.893V39.6353Z" fill="black"/>
</g>
<defs>
<filter id="filter0_d_1948_1465" x="0.11458" y="0.652667" width="172.521" height="59.7186" filterUnits="userSpaceOnUse" color-interpolation-filters="sRGB">
<feFlood flood-opacity="0" result="BackgroundImageFix"/>
<feColorMatrix in="SourceAlpha" type="matrix" values="0 0 0 0 0 0 0 0 0 0 0 0 0 0 0 0 0 0 127 0" result="hardAlpha"/>
<feOffset dy="2.48828"/>
<feGaussianBlur stdDeviation="3.31771"/>
<feComposite in2="hardAlpha" operator="out"/>
<feColorMatrix type="matrix" values="0 0 0 0 0.00392157 0 0 0 0 0.0705882 0 0 0 0 0.133333 0 0 0 0.11 0"/>
<feBlend mode="normal" in2="BackgroundImageFix" result="effect1_dropShadow_1948_1465"/>
<feBlend mode="normal" in="SourceGraphic" in2="effect1_dropShadow_1948_1465" result="shape"/>
</filter>
</defs>
</svg>
