<svg width="17" height="17" viewBox="0 0 17 17" fill="none" xmlns="http://www.w3.org/2000/svg">
<path d="M2.98706 8.93771V8.93762C2.98651 5.8999 5.44856 3.43741 8.48646 3.43741C11.5244 3.43741 13.9871 5.89997 13.9871 8.93771C13.9871 11.9748 11.5244 14.4374 8.48646 14.4374C5.44861 14.4374 2.98706 11.9749 2.98706 8.93771Z" stroke="#2F6BFF"/>
<path d="M8.08558 8.03895C8.19529 7.94108 8.33713 7.8869 8.48415 7.8867L8.48355 7.8873C8.63051 7.88715 8.77241 7.94095 8.88233 8.03848C8.99225 8.13601 9.06255 8.27049 9.07989 8.41642L9.08409 8.48661L9.08649 11.7867L9.08289 11.8569C9.06628 12.0032 8.9964 12.1384 8.88658 12.2365C8.77676 12.3347 8.63468 12.389 8.48739 12.3891C8.3401 12.3893 8.1979 12.3352 8.08789 12.2373C7.97787 12.1394 7.90773 12.0044 7.89081 11.8581L7.88721 11.7879L7.88481 8.48721L7.88901 8.41762C7.90592 8.27157 7.97587 8.13682 8.08558 8.03895Z" fill="#2F6BFF"/>
<path d="M7.95624 5.85753C8.09705 5.71673 8.28802 5.63763 8.48715 5.63763C8.68628 5.63755 8.87669 5.71658 9.01755 5.85732C9.15842 5.99807 9.2376 6.189 9.23768 6.38812C9.23776 6.58724 9.15873 6.77824 9.01798 6.9191C8.87723 7.05995 8.68628 7.13913 8.48715 7.13921C8.28802 7.13921 8.09705 7.06011 7.95624 6.91931C7.81543 6.77851 7.73633 6.58754 7.73633 6.38842C7.73633 6.1893 7.81543 5.99833 7.95624 5.85753Z" fill="#2F6BFF"/>
</svg>
