<svg width="77" height="64" viewBox="0 0 77 64" fill="none" xmlns="http://www.w3.org/2000/svg">
<path d="M67.9878 0.875H22.4014C20.2678 0.875 18.2216 1.76935 16.713 3.36129C15.2043 4.95323 14.3567 7.11237 14.3567 9.36372V50.3925H2.28975C1.93415 50.3925 1.59312 50.5416 1.34168 50.8069C1.09023 51.0722 0.948975 51.4321 0.948975 51.8073V54.6369C0.948975 56.8882 1.79653 59.0474 3.3052 60.6393C4.81386 62.2313 6.86005 63.1256 8.99363 63.1256H54.58C56.7136 63.1256 58.7598 62.2313 60.2684 60.6393C61.7771 59.0474 62.6247 56.8882 62.6247 54.6369V51.8073H72.0101C72.3657 51.8073 72.7067 51.6583 72.9582 51.3929C73.2096 51.1276 73.3509 50.7678 73.3509 50.3925V47.563C76.3274 47.563 74.4235 39.0742 68.2961 39.0742C67.8588 39.0742 67.4393 38.8909 67.13 38.5645C66.8207 38.2382 66.647 37.7956 66.647 37.334C66.647 27.4305 70.1196 24.8273 69.1274 20.3566C68.7604 18.8308 67.9217 17.4778 66.7438 16.5117C65.566 15.5457 64.1165 15.0217 62.6247 15.0229V13.6081H74.6916C75.0472 13.6081 75.3883 13.459 75.6397 13.1937C75.8912 12.9284 76.0324 12.5685 76.0324 12.1933V9.36372C76.0324 7.11237 75.1849 4.95323 73.6762 3.36129C72.1675 1.76935 70.1213 0.875 67.9878 0.875ZM8.99363 60.296C7.57125 60.296 6.20712 59.6998 5.20134 58.6385C4.19557 57.5772 3.63053 56.1378 3.63053 54.6369V53.2221H46.5354C46.5354 55.6555 46.5354 57.7777 48.5331 60.296C48.6538 60.3668 51.5364 60.296 8.99363 60.296ZM59.9431 54.6369C59.9431 56.1378 59.3781 57.5772 58.3723 58.6385C57.3665 59.6998 56.0024 60.296 54.58 60.296C53.1576 60.296 51.7935 59.6998 50.7877 58.6385C49.7819 57.5772 49.2169 56.1378 49.2169 54.6369V51.8073C49.2169 51.4321 49.0756 51.0722 48.8242 50.8069C48.5728 50.5416 48.2317 50.3925 47.8761 50.3925H17.0383V9.36372C17.0383 7.86282 17.6033 6.42339 18.6091 5.3621C19.6149 4.3008 20.979 3.70457 22.4014 3.70457H61.9945C60.6743 5.26045 59.9439 7.27529 59.9431 9.36372C59.9431 18.1071 60.4392 14.4004 57.8783 17.1167C56.8919 18.1629 56.2402 19.5085 56.0146 20.965C55.3442 25.365 58.6023 26.3412 58.6023 37.334C58.6023 37.7956 58.4286 38.2382 58.1193 38.5645C57.81 38.8909 57.3906 39.0742 56.9532 39.0742C50.799 39.0742 48.9085 47.563 51.8985 47.563V50.3925C51.8985 50.7678 52.0397 51.1276 52.2912 51.3929C52.5426 51.6583 52.8836 51.8073 53.2392 51.8073H59.9431V54.6369ZM70.6693 48.9777H54.58V47.563H70.6693V48.9777ZM66.5263 21.0074C67.1833 23.9785 63.9654 27.7559 63.9654 37.334C63.9654 38.546 64.4217 39.7084 65.2339 40.5654C66.046 41.4224 67.1476 41.9038 68.2961 41.9038C69.1009 41.9041 69.8838 42.1801 70.527 42.6904C71.1702 43.2007 71.6389 43.9177 71.8626 44.7334H53.3867C53.6065 43.9153 54.0742 43.1957 54.7183 42.6847C55.3624 42.1737 56.1474 41.8994 56.9532 41.9038C57.5219 41.9038 58.085 41.7856 58.6105 41.556C59.1359 41.3263 59.6133 40.9897 60.0155 40.5654C60.4176 40.141 60.7366 39.6373 60.9542 39.0828C61.1719 38.5284 61.2839 37.9342 61.2839 37.334V35.6505C61.2839 28.8029 58.6023 23.936 58.6023 22.0968C58.5886 21.056 58.9377 20.0462 59.5835 19.2593C60.2292 18.4724 61.1264 17.9633 62.1046 17.8288C63.0828 17.6943 64.0737 17.9438 64.8889 18.5299C65.7042 19.1159 66.2869 19.9976 66.5263 21.0074ZM73.3509 10.7785H62.6247V9.36372C62.6247 7.86282 63.1897 6.42339 64.1955 5.3621C65.2013 4.3008 66.5654 3.70457 67.9878 3.70457C69.4102 3.70457 70.7743 4.3008 71.7801 5.3621C72.7858 6.42339 73.3509 7.86282 73.3509 9.36372V10.7785Z" fill="#333333"/>
<path d="M8.99363 60.296C7.57125 60.296 6.20712 59.6998 5.20134 58.6385C4.19557 57.5772 3.63053 56.1378 3.63053 54.6369V53.2221H46.5354C46.5354 55.6555 46.5354 57.7777 48.5331 60.296C48.6538 60.3668 51.5364 60.296 8.99363 60.296Z" fill="white"/>
<path d="M59.9431 54.6369C59.9431 56.1378 59.3781 57.5772 58.3723 58.6385C57.3665 59.6998 56.0024 60.296 54.58 60.296C53.1576 60.296 51.7935 59.6998 50.7877 58.6385C49.7819 57.5772 49.2169 56.1378 49.2169 54.6369V51.8073C49.2169 51.4321 49.0756 51.0722 48.8242 50.8069C48.5728 50.5416 48.2317 50.3925 47.8761 50.3925H17.0383V9.36372C17.0383 7.86282 17.6033 6.42339 18.6091 5.3621C19.6149 4.3008 20.979 3.70457 22.4014 3.70457H61.9945C60.6743 5.26045 59.9439 7.27529 59.9431 9.36372C59.9431 18.1071 60.4392 14.4004 57.8783 17.1167C56.8919 18.1629 56.2402 19.5085 56.0146 20.965C55.3442 25.365 58.6023 26.3412 58.6023 37.334C58.6023 37.7956 58.4286 38.2382 58.1193 38.5645C57.81 38.8909 57.3906 39.0742 56.9532 39.0742C50.799 39.0742 48.9085 47.563 51.8985 47.563V50.3925C51.8985 50.7678 52.0397 51.1276 52.2912 51.3929C52.5426 51.6583 52.8836 51.8073 53.2392 51.8073H59.9431V54.6369Z" fill="white"/>
<path d="M42.635 33.8107C42.6403 35.3006 42.1405 36.7481 41.2174 37.9171C40.2943 39.086 39.0024 39.9071 37.5527 40.2464C36.103 40.5857 34.5811 40.4231 33.2357 39.7851C31.8902 39.1471 30.8008 38.0714 30.1452 36.7338C29.4896 35.3962 29.3066 33.8757 29.6261 32.4206C29.9457 30.9654 30.7489 29.6617 31.9045 28.7224C33.0601 27.7831 34.4999 27.2636 35.9887 27.2488C37.4775 27.2341 38.9273 27.7249 40.1013 28.6411C40.3282 28.8318 40.6215 28.9245 40.9167 28.8987C41.2118 28.873 41.4847 28.731 41.6753 28.5039C41.8658 28.2769 41.9584 27.9834 41.9327 27.688C41.907 27.3926 41.7651 27.1196 41.5382 26.9289C39.9867 25.686 38.0596 25.0068 36.0721 25.0027C34.0847 24.9986 32.1548 25.6697 30.5982 26.9062C29.0416 28.1427 27.9506 29.8713 27.5037 31.8091C27.0569 33.7469 27.2807 35.7792 28.1385 37.5731C28.9963 39.3671 30.4372 40.8165 32.2255 41.6842C34.0138 42.5519 36.0435 42.7864 37.9823 42.3493C39.9212 41.9122 41.6543 40.8295 42.8981 39.2783C44.1418 37.7272 44.8225 35.7995 44.8287 33.8107C44.8287 33.5196 44.7132 33.2405 44.5075 33.0346C44.3018 32.8288 44.0228 32.7132 43.7319 32.7132C43.441 32.7132 43.162 32.8288 42.9563 33.0346C42.7506 33.2405 42.635 33.5196 42.635 33.8107Z" fill="url(#paint0_linear_1948_1074)"/>
<path d="M45.1467 26.4458L36.0538 35.5557L33.542 33.0313C33.3354 32.8246 33.0553 32.7085 32.7632 32.7085C32.4711 32.7085 32.191 32.8246 31.9844 33.0313C31.7779 33.238 31.6619 33.5183 31.6619 33.8106C31.6619 34.1029 31.7779 34.3832 31.9844 34.5899C35.4066 38.0033 35.4176 38.2009 36.0538 38.2009C36.69 38.2009 35.977 38.7387 46.7043 28.0044C46.9108 27.7977 47.0268 27.5174 47.0268 27.2251C47.0268 26.9328 46.9108 26.6525 46.7043 26.4458C46.4977 26.2392 46.2176 26.123 45.9255 26.123C45.6334 26.123 45.3533 26.2392 45.1467 26.4458Z" fill="url(#paint1_linear_1948_1074)"/>
<path d="M23.7426 11.83H53.2397C53.5953 11.83 53.9363 11.6887 54.1878 11.4371C54.4392 11.1855 54.5805 10.8442 54.5805 10.4884C54.5805 10.1326 54.4392 9.7913 54.1878 9.53969C53.9363 9.28808 53.5953 9.14673 53.2397 9.14673H23.7426C23.387 9.14673 23.046 9.28808 22.7946 9.53969C22.5431 9.7913 22.4019 10.1326 22.4019 10.4884C22.4019 10.8442 22.5431 11.1855 22.7946 11.4371C23.046 11.6887 23.387 11.83 23.7426 11.83Z" fill="#333333" stroke="white"/>
<path d="M53.2397 15.8555H23.7426C23.387 15.8555 23.046 15.9968 22.7946 16.2484C22.5431 16.5 22.4019 16.8413 22.4019 17.1971C22.4019 17.553 22.5431 17.8942 22.7946 18.1458C23.046 18.3974 23.387 18.5388 23.7426 18.5388H53.2397C53.5953 18.5388 53.9363 18.3974 54.1878 18.1458C54.4392 17.8942 54.5805 17.553 54.5805 17.1971C54.5805 16.8413 54.4392 16.5 54.1878 16.2484C53.9363 15.9968 53.5953 15.8555 53.2397 15.8555Z" fill="#333333" stroke="white"/>
<defs>
<linearGradient id="paint0_linear_1948_1074" x1="27.2791" y1="25.0027" x2="50.1345" y2="30.791" gradientUnits="userSpaceOnUse">
<stop stop-color="#CC002E"/>
<stop offset="0.484375" stop-color="#EC1848"/>
<stop offset="1" stop-color="#9A268F"/>
</linearGradient>
<linearGradient id="paint1_linear_1948_1074" x1="31.6619" y1="26.123" x2="50.952" y2="32.3398" gradientUnits="userSpaceOnUse">
<stop stop-color="#CC002E"/>
<stop offset="0.484375" stop-color="#EC1848"/>
<stop offset="1" stop-color="#9A268F"/>
</linearGradient>
</defs>
</svg>
