<svg width="42" height="56" viewBox="0 0 42 56" fill="none" xmlns="http://www.w3.org/2000/svg">
<path d="M27.5485 17.0567C27.4026 17.1103 27.2568 17.1698 27.111 17.2177C27.3046 17.906 28.6288 22.2833 31.9328 25.5827C32.3913 26.0388 32.3913 26.7762 31.9351 27.2323C31.7076 27.461 31.4078 27.5753 31.1091 27.5753C30.8105 27.5753 30.5106 27.461 30.2855 27.2347C28.308 25.2618 26.9721 22.9915 26.1181 21.1587C25.6701 22.309 25.0413 23.5713 24.1675 24.6832C23.7696 25.1907 23.0358 25.2805 22.5318 24.8803C22.0243 24.4825 21.9356 23.7487 22.3335 23.2435C23.7988 21.378 24.4533 18.9128 24.6913 17.8115C23.5526 18.0063 22.428 18.0927 21.3453 18.0927C18.4683 18.0927 15.9156 17.528 14.2858 17.0578C8.02079 22.1375 0.42578 34.3747 0.473613 44.6017C0.49928 50.0932 3.48012 56.0023 9.96445 56.0023H31.8756H31.9095C37.0871 55.846 41.58 50.5108 41.5251 44.5853C41.433 34.3443 33.7901 22.1235 27.5485 17.0567ZM21 38.3028C23.9376 38.3028 26.327 40.3363 26.327 42.8377C26.327 44.9972 24.5431 46.7997 22.1666 47.2535V48.629C22.1666 49.2742 21.6451 49.7957 21 49.7957C20.3548 49.7957 19.8333 49.2742 19.8333 48.629V47.2535C17.4556 46.7985 15.6706 44.9937 15.6706 42.8377C15.6706 42.1925 16.1933 41.671 16.8373 41.671C17.4813 41.671 18.004 42.1925 18.004 42.8377C18.004 44.03 19.376 45.038 21 45.038C22.6228 45.038 23.9936 44.0323 23.9936 42.8377C23.9936 41.6453 22.624 40.6362 21 40.6362C18.0611 40.6362 15.6706 38.6027 15.6706 36.1002C15.6706 33.9418 17.4556 32.1382 19.8333 31.6855V30.4792C19.8333 29.834 20.356 29.3125 21 29.3125C21.644 29.3125 22.1666 29.834 22.1666 30.4792V31.6855C24.5431 32.1405 26.327 33.9442 26.327 36.1002C26.327 36.7465 25.8055 37.2668 25.1603 37.2668C24.5151 37.2668 23.9936 36.7465 23.9936 36.1002C23.9936 34.9592 22.7313 33.8893 20.993 33.8893C19.2546 33.8893 18.0028 34.9603 18.0028 36.1002C18.004 37.2948 19.376 38.3028 21 38.3028ZM13.7923 14.4503C10.892 11.403 8.10712 7.03734 8.15262 4.63051C8.20395 3.54668 8.38479 2.41384 9.34379 1.97401C10.36 1.50851 11.2945 2.23651 12.1158 2.87584C12.6548 3.29584 13.4703 3.92118 13.881 3.84068C14.1201 3.78584 14.4351 3.41368 15.3661 2.06385C16.2983 0.712846 17.4323 -0.0839874 18.5978 0.00351254C20.0141 0.107346 20.7468 1.45251 21.4561 2.75451C22.0115 3.71001 22.5015 4.57334 23.1968 5.25818C23.3823 5.10068 23.6821 4.73668 23.8921 4.48001C25.0378 3.08468 27.1716 0.484179 31.6645 2.28201C32.109 2.45818 32.3983 2.88868 32.3983 3.36584C32.3983 6.56718 30.0895 11.3318 27.6045 14.5157C22.0593 16.9715 15.5551 15.0582 13.7923 14.4503Z" fill="url(#paint0_linear_1948_503)"/>
<defs>
<linearGradient id="paint0_linear_1948_503" x1="0.473389" y1="-0.00302124" x2="55.4683" y2="10.2129" gradientUnits="userSpaceOnUse">
<stop stop-color="#CC002E"/>
<stop offset="0.484375" stop-color="#EC1848"/>
<stop offset="1" stop-color="#9A268F"/>
</linearGradient>
</defs>
</svg>
