<svg width="67" height="70" viewBox="0 0 67 70" fill="none" xmlns="http://www.w3.org/2000/svg">
<path d="M37.5625 16.9531H15.6875C13.577 16.9531 11.8594 15.2355 11.8594 13.125V8.75C11.8594 6.6395 13.577 4.92188 15.6875 4.92188H20.8358C21.5535 2.40013 23.8755 0.546875 26.625 0.546875C28.2507 0.546875 29.7632 1.18125 30.8847 2.33275C31.6175 3.04522 32.1408 3.93597 32.4164 4.92188H37.5625C39.673 4.92188 41.3906 6.6395 41.3906 8.75V13.125C41.3906 15.2355 39.673 16.9531 37.5625 16.9531ZM15.6875 8.20312C15.3863 8.20312 15.1406 8.44878 15.1406 8.75V13.125C15.1406 13.4262 15.3863 13.6719 15.6875 13.6719H37.5625C37.8637 13.6719 38.1094 13.4262 38.1094 13.125V8.75C38.1094 8.44878 37.8637 8.20312 37.5625 8.20312H31C30.0942 8.20312 29.3594 7.46834 29.3594 6.5625C29.3594 5.82969 29.0774 5.15156 28.5647 4.65369C28.0348 4.11009 27.3576 3.82812 26.625 3.82812C25.1167 3.82812 23.8906 5.05422 23.8906 6.5625C23.8906 7.46834 23.1558 8.20312 22.25 8.20312H15.6875Z" fill="#333333"/>
<path d="M44.125 69.4531H9.125C5.80744 69.4531 3.10938 66.7551 3.10938 63.4375V15.3125C3.10938 11.9949 5.80744 9.29688 9.125 9.29688H13.5C14.4058 9.29688 15.1406 10.0317 15.1406 10.9375C15.1406 11.8433 14.4058 12.5781 13.5 12.5781H9.125C7.61672 12.5781 6.39063 13.8042 6.39063 15.3125V63.4375C6.39063 64.9458 7.61672 66.1719 9.125 66.1719H44.125C45.6333 66.1719 46.8594 64.9458 46.8594 63.4375V59.0625C46.8594 58.1567 47.5942 57.4219 48.5 57.4219C49.4058 57.4219 50.1406 58.1567 50.1406 59.0625V63.4375C50.1406 66.7551 47.4426 69.4531 44.125 69.4531Z" fill="#333333"/>
<path d="M48.5 29.7717C47.5942 29.7717 46.8594 29.0369 46.8594 28.131V15.3125C46.8594 13.8042 45.6333 12.5781 44.125 12.5781H39.75C38.8442 12.5781 38.1094 11.8433 38.1094 10.9375C38.1094 10.0317 38.8442 9.29688 39.75 9.29688H44.125C47.4426 9.29688 50.1406 11.996 50.1406 15.3125V28.131C50.1406 29.0369 49.4058 29.7717 48.5 29.7717Z" fill="#333333"/>
<path d="M33.0314 60.7032C32.5999 60.7032 32.1812 60.5335 31.8714 60.2226C31.4827 59.835 31.316 59.2785 31.4228 58.7413L32.9693 51.0071C33.0334 50.6889 33.1894 50.3973 33.418 50.1687L53.5264 30.0603C54.1673 29.4194 55.2055 29.4194 55.8462 30.0603L62.0349 36.2479C62.3424 36.5554 62.5155 36.973 62.5155 37.4079C62.5155 37.8428 62.3424 38.2601 62.0349 38.5679L41.9265 58.6763C41.6979 58.906 41.4052 59.0619 41.0891 59.1249L33.3539 60.6715C33.245 60.6929 33.1384 60.7032 33.0314 60.7032ZM36.0885 52.137L35.1229 56.9714L39.9573 56.0047L58.5554 37.4077L54.6866 33.5399L36.0885 52.137Z" fill="url(#paint0_linear_1948_946)"/>
<path d="M60.8752 39.0482C60.4543 39.0482 60.0356 38.8881 59.7151 38.5676L53.5265 32.3801C53.2189 32.0725 53.0459 31.6549 53.0459 31.2201C53.0459 30.7852 53.2189 30.3678 53.5265 30.06L56.6198 26.9667C58.9675 24.621 62.7851 24.6232 65.1283 26.9667C66.2647 28.102 66.8908 29.6125 66.8908 31.2198C66.8908 32.8272 66.265 34.3377 65.1283 35.4741L62.035 38.5674C61.7145 38.8879 61.2961 39.0482 60.8752 39.0482ZM57.0064 31.2201L60.8752 35.0878L62.8085 33.1545C63.3254 32.6375 63.6096 31.9507 63.6096 31.2201C63.6096 30.4894 63.3254 29.8036 62.8085 29.2867C61.7403 28.223 60.0078 28.2186 58.9397 29.2867L57.0064 31.2201Z" fill="url(#paint1_linear_1948_946)"/>
<path d="M39.75 25.7031H13.5C12.5942 25.7031 11.8594 24.9683 11.8594 24.0625C11.8594 23.1567 12.5942 22.4219 13.5 22.4219H39.75C40.6558 22.4219 41.3906 23.1567 41.3906 24.0625C41.3906 24.9683 40.6558 25.7031 39.75 25.7031Z" fill="#333333"/>
<path d="M39.75 34.4531H13.5C12.5942 34.4531 11.8594 33.7183 11.8594 32.8125C11.8594 31.9067 12.5942 31.1719 13.5 31.1719H39.75C40.6558 31.1719 41.3906 31.9067 41.3906 32.8125C41.3906 33.7183 40.6558 34.4531 39.75 34.4531Z" fill="#333333"/>
<path d="M35.0694 43.2031H13.5C12.5942 43.2031 11.8594 42.4683 11.8594 41.5625C11.8594 40.6567 12.5942 39.9219 13.5 39.9219H35.0696C35.9755 39.9219 36.7102 40.6567 36.7102 41.5625C36.7102 42.4683 35.9753 43.2031 35.0694 43.2031Z" fill="#333333"/>
<path d="M28.0904 51.9531H13.5C12.5942 51.9531 11.8594 51.2183 11.8594 50.3125C11.8594 49.4067 12.5942 48.6719 13.5 48.6719H28.0904C28.9963 48.6719 29.731 49.4067 29.731 50.3125C29.731 51.2183 28.9963 51.9531 28.0904 51.9531Z" fill="#333333"/>
<path d="M26.3408 60.7031H13.5C12.5942 60.7031 11.8594 59.9683 11.8594 59.0625C11.8594 58.1567 12.5942 57.4219 13.5 57.4219H26.3408C27.2467 57.4219 27.9815 58.1567 27.9815 59.0625C27.9815 59.9683 27.2467 60.7031 26.3408 60.7031Z" fill="#333333"/>
<defs>
<linearGradient id="paint0_linear_1948_946" x1="31.3911" y1="29.5796" x2="71.9219" y2="39.8513" gradientUnits="userSpaceOnUse">
<stop stop-color="#CC002E"/>
<stop offset="0.484375" stop-color="#EC1848"/>
<stop offset="1" stop-color="#9A268F"/>
</linearGradient>
<linearGradient id="paint1_linear_1948_946" x1="53.0459" y1="25.2083" x2="71.0743" y2="29.7787" gradientUnits="userSpaceOnUse">
<stop stop-color="#CC002E"/>
<stop offset="0.484375" stop-color="#EC1848"/>
<stop offset="1" stop-color="#9A268F"/>
</linearGradient>
</defs>
</svg>
