<svg width="70" height="70" viewBox="0 0 70 70" fill="none" xmlns="http://www.w3.org/2000/svg">
<rect width="70" height="70" rx="35" fill="#FF0008" fill-opacity="0.15"/>
<circle cx="35" cy="35" r="28" fill="#E7252B"/>
<path d="M45.592 34.3142H48.3288C48.3288 27.2943 43.029 22 35.9995 22V24.7368C41.5579 24.7368 45.592 28.764 45.592 34.3142Z" fill="white"/>
<path d="M35.6843 30.2108C38.5621 30.2108 39.7895 31.4383 39.7895 34.316H42.5263C42.5263 29.903 40.0974 27.474 35.6843 27.474V30.2108ZM40.367 37.659C40.104 37.42 39.7585 37.2926 39.4034 37.3035C39.0482 37.3145 38.7112 37.4631 38.4636 37.7179L35.189 41.0855C34.4008 40.935 32.8162 40.441 31.1851 38.8139C29.5539 37.1814 29.0599 35.5927 28.9135 34.81L32.2784 31.5341C32.5335 31.2866 32.6823 30.9495 32.6932 30.5943C32.7042 30.239 32.5766 29.8934 32.3372 29.6306L27.281 24.0708C27.0416 23.8072 26.7089 23.6473 26.3535 23.6251C25.9981 23.6029 25.648 23.7201 25.3776 23.9518L22.4082 26.4984C22.1716 26.7358 22.0304 27.0518 22.0113 27.3865C21.9908 27.7286 21.5994 35.8322 27.8831 42.1186C33.3649 47.599 40.2315 48 42.1226 48C42.3991 48 42.5687 47.9918 42.6139 47.989C42.9485 47.9703 43.2643 47.8285 43.5006 47.5908L46.0458 44.62C46.2777 44.3498 46.3952 43.9999 46.3732 43.6444C46.3512 43.289 46.1916 42.9562 45.9282 42.7166L40.367 37.659Z" fill="white"/>
</svg>
