<svg width="103" height="104" viewBox="0 0 103 104" fill="none" xmlns="http://www.w3.org/2000/svg">
<rect y="0.398438" width="102.849" height="102.849" rx="8.29428" fill="white"/>
<path d="M9.12378 9.52197H32.8122V33.2104H9.12378V9.52197ZM36.1963 9.52197H39.5804V19.6742H36.1963V9.52197ZM46.3485 9.52197H53.1166V16.2901H49.7325V12.906H46.3485V9.52197ZM56.5007 9.52197H59.8847V12.906H56.5007V9.52197ZM63.2688 9.52197H66.6529V16.2901H63.2688V9.52197ZM70.0369 9.52197H93.7254V33.2104H70.0369V9.52197ZM12.5078 12.906V29.8264H29.4282V12.906H12.5078ZM73.421 12.906V29.8264H90.3413V12.906H73.421ZM15.8919 16.2901H26.0441V26.4423H15.8919V16.2901ZM46.3485 16.2901H49.7325V19.6742H53.1166V16.2901H59.8847V19.6742H66.6529V36.5945H63.2688V23.0582H49.7325V29.8264H46.3485V36.5945H49.7325V29.8264H53.1166V33.2104H56.5007V36.5945H53.1166V43.3626H42.9644V50.1307H36.1963V46.7467H29.4282V50.1307H22.66V53.5148H19.276V50.1307H15.8919V43.3626H12.5078V39.9785H19.276V36.5945H39.5804V33.2104H42.9644V23.0582H46.3485V16.2901ZM76.8051 16.2901H86.9573V26.4423H76.8051V16.2901ZM39.5804 19.6742H42.9644V23.0582H39.5804V19.6742ZM36.1963 23.0582H39.5804V26.4423H36.1963V23.0582ZM53.1166 26.4423H56.5007V29.8264H53.1166V26.4423ZM36.1963 29.8264H39.5804V33.2104H36.1963V29.8264ZM56.5007 29.8264H59.8847V33.2104H56.5007V29.8264ZM9.12378 36.5945H12.5078V39.9785H9.12378V36.5945ZM59.8847 36.5945H63.2688V50.1307H59.8847V36.5945ZM66.6529 36.5945H70.0369V39.9785H66.6529V36.5945ZM76.8051 36.5945H80.1891V39.9785H83.5732V36.5945H93.7254V39.9785H90.3413V43.3626H83.5732V46.7467H90.3413V43.3626H93.7254V53.5148H90.3413V50.1307H76.8051V53.5148H70.0369V43.3626H73.421V46.7467H80.1891V43.3626H73.421V39.9785H76.8051V36.5945ZM22.66 39.9785V46.7467H26.0441V39.9785H22.66ZM29.4282 39.9785V43.3626H36.1963V39.9785H29.4282ZM53.1166 43.3626H56.5007V46.7467H53.1166V43.3626ZM29.4282 50.1307H32.8122V53.5148H29.4282V50.1307ZM46.3485 50.1307H49.7325V53.5148H46.3485V50.1307ZM63.2688 50.1307H66.6529V53.5148H63.2688V50.1307ZM9.12378 53.5148H15.8919V56.8989H26.0441V60.2829H29.4282V63.667H26.0441V67.0511H15.8919V60.2829H12.5078V67.0511H9.12378V53.5148ZM42.9644 53.5148H46.3485V60.2829H42.9644V63.667H49.7325V60.2829H53.1166V63.667H56.5007V67.0511H59.8847V73.8192H63.2688V63.667H56.5007V60.2829H59.8847V53.5148H63.2688V60.2829H66.6529V63.667H70.0369V60.2829H76.8051V63.667H80.1891V70.4351H83.5732V73.8192H80.1891V77.2033H83.5732V83.9714H80.1891V80.5873H73.421V83.9714H70.0369V90.7395H66.6529V87.3554H63.2688V83.9714H66.6529V80.5873H56.5007V77.2033H53.1166V73.8192H56.5007V70.4351H53.1166V67.0511H49.7325V70.4351H42.9644V67.0511H39.5804V56.8989H42.9644V53.5148ZM49.7325 53.5148H56.5007V56.8989H49.7325V53.5148ZM76.8051 53.5148H80.1891V56.8989H86.9573V53.5148H90.3413V56.8989H93.7254V63.667H90.3413V60.2829H86.9573V63.667H90.3413V70.4351H86.9573V67.0511H83.5732V60.2829H76.8051V53.5148ZM29.4282 56.8989H32.8122V60.2829H29.4282V56.8989ZM66.6529 56.8989H70.0369V60.2829H66.6529V56.8989ZM19.276 60.2829V63.667H22.66V60.2829H19.276ZM29.4282 63.667H36.1963V67.0511H29.4282V63.667ZM36.1963 67.0511H39.5804V70.4351H42.9644V73.8192H39.5804V77.2033H42.9644V80.5873H39.5804V83.9714H36.1963V67.0511ZM66.6529 67.0511V77.2033H76.8051V67.0511H66.6529ZM9.12378 70.4351H32.8122V94.1236H9.12378V70.4351ZM49.7325 70.4351H53.1166V73.8192H49.7325V70.4351ZM70.0369 70.4351H73.421V73.8192H70.0369V70.4351ZM90.3413 70.4351H93.7254V77.2033H90.3413V70.4351ZM12.5078 73.8192V90.7395H29.4282V73.8192H12.5078ZM42.9644 73.8192H49.7325V77.2033H53.1166V90.7395H49.7325V94.1236H36.1963V90.7395H42.9644V80.5873H46.3485V83.9714H49.7325V80.5873H46.3485V77.2033H42.9644V73.8192ZM15.8919 77.2033H26.0441V87.3554H15.8919V77.2033ZM86.9573 80.5873H93.7254V94.1236H90.3413V90.7395H83.5732V83.9714H86.9573V80.5873ZM73.421 83.9714H80.1891V90.7395H73.421V83.9714ZM63.2688 90.7395H66.6529V94.1236H63.2688V90.7395ZM70.0369 90.7395H73.421V94.1236H70.0369V90.7395ZM80.1891 90.7395H83.5732V94.1236H80.1891V90.7395Z" fill="black"/>
</svg>
