<svg width="56" height="56" viewBox="0 0 56 56" fill="none" xmlns="http://www.w3.org/2000/svg">
<path fill-rule="evenodd" clip-rule="evenodd" d="M28 24.3764C36.491 24.3764 43.3743 31.2597 43.3743 39.7507C43.3743 48.2417 36.491 55.125 28 55.125C19.509 55.125 12.6257 48.2417 12.6257 39.7507C12.6257 31.2597 19.509 24.3764 28 24.3764ZM12.3733 12.7853C12.278 12.6732 12.1513 12.6144 12.0042 12.6144C11.8569 12.6144 11.7303 12.673 11.6349 12.7853L4.96609 20.6396C4.84107 20.7868 4.81461 20.9812 4.89576 21.1565C4.97681 21.3318 5.14218 21.4375 5.33534 21.4375H8.44126V31.7529C8.44126 32.2864 8.87646 32.7216 9.41 32.7216H12.3803C13.1737 30.9614 14.2561 29.3595 15.5667 27.9762V21.4375H18.6727C18.8658 21.4375 19.0312 21.3318 19.1123 21.1565C19.1935 20.9813 19.167 20.7868 19.042 20.6396L12.3733 12.7853ZM44.3652 1.04584C44.2699 0.933625 44.1432 0.875 43.996 0.875C43.8488 0.875 43.7221 0.933625 43.6268 1.04584L36.958 8.90017C36.8329 9.04739 36.8066 9.24186 36.8876 9.41708C36.9688 9.59241 37.134 9.69806 37.3272 9.69806H40.4332V27.976C41.7439 29.3595 42.8262 30.9613 43.6197 32.7216H46.59C47.1235 32.7216 47.5587 32.2864 47.5587 31.7529V9.69806H50.6647C50.8579 9.69806 51.0231 9.59241 51.1043 9.41708C51.1855 9.24186 51.159 9.04739 51.034 8.90017L44.3652 1.04584ZM28.3692 6.91567C30.5921 9.53378 32.8149 12.1519 35.0379 14.77C35.1629 14.9172 35.1894 15.1116 35.1082 15.2869C35.027 15.4622 34.8618 15.5679 34.6685 15.5679C33.6332 15.5679 32.5978 15.5679 31.5626 15.5679V22.9986C30.4133 22.7554 29.2217 22.6264 27.9999 22.6264C26.7781 22.6264 25.5866 22.7554 24.4371 22.9986V15.5678C23.4018 15.5678 22.3664 15.5678 21.3311 15.5678C21.1381 15.5678 20.9727 15.4621 20.8915 15.2868C20.8104 15.1116 20.8368 14.9171 20.9619 14.7699C23.1848 12.1518 25.4077 9.53367 27.6306 6.91556C27.7258 6.80334 27.8526 6.74461 27.9998 6.74461C28.1472 6.74472 28.274 6.80345 28.3692 6.91567ZM23.3484 47.7937L34.2436 32.6198C34.5248 32.229 34.4361 31.6842 34.0454 31.403C33.6546 31.1218 33.1098 31.2105 32.8286 31.6013L21.9334 46.7752C21.6522 47.166 21.7409 47.7108 22.1316 47.992C22.5223 48.2732 23.0671 48.1845 23.3484 47.7937ZM25.8555 31.5521C24.4562 30.1537 22.1571 30.1582 20.7596 31.5567C19.3614 32.9559 19.3657 35.2552 20.7642 36.6525C22.1729 38.0602 24.4534 38.0555 25.8601 36.648C27.2678 35.2393 27.2629 32.9586 25.8555 31.5521ZM35.1978 42.8426C33.8072 41.4531 31.5224 41.4575 30.1338 42.8472C28.7443 44.2377 28.7487 46.5225 30.1384 47.9113C31.5289 49.3008 33.8137 49.2963 35.2025 47.9067C36.592 46.5162 36.5874 44.2313 35.1978 42.8426ZM34.0321 44.0149C33.2827 43.266 32.0557 43.2627 31.306 44.013C30.5571 44.7624 30.5539 45.9893 31.3041 46.7391C32.0535 47.4879 33.2805 47.4912 34.0302 46.741C34.779 45.9915 34.7823 44.7646 34.0321 44.0149ZM24.6824 32.7316C23.9283 31.978 22.6936 31.9747 21.9391 32.7297C21.1855 33.4837 21.1822 34.7185 21.9373 35.4729C22.6936 36.2287 23.9237 36.2321 24.6805 35.4748C25.4367 34.718 25.4401 33.4889 24.6824 32.7316Z" fill="url(#paint0_linear_1948_609)"/>
<defs>
<linearGradient id="paint0_linear_1948_609" x1="4.84937" y1="0.875" x2="66.1487" y2="14.1336" gradientUnits="userSpaceOnUse">
<stop stop-color="#CC002E"/>
<stop offset="0.484375" stop-color="#EC1848"/>
<stop offset="1" stop-color="#9A268F"/>
</linearGradient>
</defs>
</svg>
