<svg width="80" height="70" viewBox="0 0 80 70" fill="none" xmlns="http://www.w3.org/2000/svg">
<mask id="mask0_1948_1005" style="mask-type:luminance" maskUnits="userSpaceOnUse" x="0" y="0" width="80" height="80">
<path d="M0 7.62939e-06H80V80H0V7.62939e-06Z" fill="white"/>
</mask>
<g mask="url(#mask0_1948_1005)">
<path d="M32.9688 10H5.06328C3.12984 10 1.5625 11.5673 1.5625 13.5008V41.4992C1.5625 43.4327 3.12984 45 5.06328 45H53.4055" stroke="black" stroke-width="2.73437" stroke-miterlimit="10" stroke-linecap="round" stroke-linejoin="round"/>
<path d="M64.14 45H74.9367C76.8702 45 78.4375 43.4327 78.4375 41.4992V13.5008C78.4375 11.5673 76.8702 10 74.9367 10H47.0312" stroke="black" stroke-width="2.73437" stroke-miterlimit="10" stroke-linecap="round" stroke-linejoin="round"/>
<path d="M20.4919 21.25V30.6387C20.4919 31.8078 21.0718 32.5947 22.0569 33.2241C22.5366 33.5306 23.1424 33.7491 23.8955 33.75C24.5477 33.7509 25.0927 33.6 25.5433 33.373C26.6913 32.7948 27.4233 31.917 27.4233 30.6316V21.25" stroke="black" stroke-width="2.73437" stroke-miterlimit="10" stroke-linecap="round" stroke-linejoin="round"/>
<path d="M15.4078 22.535C15.4078 22.535 13.1649 20.6495 10.5199 21.4464C8.09111 22.178 7.75143 24.9784 9.50861 26.1239C9.50861 26.1239 11.2327 26.8931 13.145 27.5984C17.7483 29.2964 15.7655 33.75 12.0596 33.75C10.2038 33.75 8.64643 32.9373 7.70361 31.897" stroke="black" stroke-width="2.73437" stroke-miterlimit="10" stroke-linecap="round" stroke-linejoin="round"/>
<path d="M66.5625 21.25H72.1875" stroke="black" stroke-width="2.73437" stroke-miterlimit="10" stroke-linecap="round" stroke-linejoin="round"/>
<path d="M69.3635 21.6492V33.75" stroke="black" stroke-width="2.73437" stroke-miterlimit="10" stroke-linecap="round" stroke-linejoin="round"/>
<path d="M61.5447 21.25V33.75" stroke="black" stroke-width="2.73437" stroke-miterlimit="10" stroke-linecap="round" stroke-linejoin="round"/>
<path d="M38.7445 24.1262C38.7445 25.7148 37.4567 27.0025 35.8682 27.0025C35.0804 27.0025 32.2373 27.0151 32.2373 27.0151V24.1262V21.25H35.8682C37.4567 21.25 38.7445 22.5376 38.7445 24.1262Z" stroke="black" stroke-width="2.73437" stroke-miterlimit="10" stroke-linecap="round" stroke-linejoin="round"/>
<path d="M39.867 30.3706C39.867 32.2289 38.3606 33.7352 36.5025 33.7352C35.5809 33.7352 32.2373 33.75 32.2373 33.75V30.3706V27.0059H36.5025C38.3606 27.0059 39.867 28.5123 39.867 30.3706Z" stroke="black" stroke-width="2.73437" stroke-miterlimit="10" stroke-linecap="round" stroke-linejoin="round"/>
<path d="M44.3103 33.75L46.3394 21.4797C46.3901 21.1947 46.7573 21.168 46.8426 21.4431L50.1436 33.5575C50.2236 33.8155 50.5612 33.8137 50.6387 33.5547L53.827 21.4453C53.9097 21.1692 54.277 21.1916 54.3305 21.4759L56.4797 33.75" stroke="black" stroke-width="2.73437" stroke-miterlimit="10" stroke-linecap="round" stroke-linejoin="round"/>
<path d="M74.001 50.3675L53.7728 39.6773L52.9165 62.5406L58.2649 58.0842L65.1445 70L74.3471 64.687L67.4674 52.7711L74.001 50.3675Z" stroke="url(#paint0_linear_1948_1005)" stroke-width="2.73437" stroke-miterlimit="10" stroke-linecap="round" stroke-linejoin="round"/>
</g>
<defs>
<linearGradient id="paint0_linear_1948_1005" x1="52.9165" y1="70" x2="81.6932" y2="64.8459" gradientUnits="userSpaceOnUse">
<stop stop-color="#CC002E"/>
<stop offset="0.484375" stop-color="#EC1848"/>
<stop offset="1" stop-color="#9A268F"/>
</linearGradient>
</defs>
</svg>
