<svg width="418" height="500" viewBox="0 0 418 500" fill="none" xmlns="http://www.w3.org/2000/svg">
<g clip-path="url(#clip0_1901_956)">
<path d="M238.57 -188.257C247.257 -179.194 250.63 -172.676 251.141 -167.89C254.309 -141.006 294.883 -107.401 334.026 -74.9167C379.198 -37.4422 421.816 -2.10614 417.728 27.3236C415.99 39.8491 405.975 50.0323 387.272 58.2808C331.164 83.1281 233.46 77.5272 161.409 68.3623C72.4946 57.1606 -8.34607 36.9977 -41.0502 26.2034C-139.674 -6.17947 -226.135 -35.3037 -286.229 -61.6784C-349.593 -89.5807 -382.093 -113.511 -391.598 -139.377C-397.117 -154.448 -394.664 -170.029 -384.035 -187.137C-369.318 -210.864 -365.128 -234.489 -370.851 -261.678C-376.063 -286.322 -388.941 -311.678 -402.533 -338.562C-419.09 -371.047 -437.792 -407.911 -446.582 -450.986C-448.013 -458.216 -446.377 -463.919 -441.676 -467.89C-429.616 -477.972 -397.219 -476.444 -345.403 -463.41C-299.822 -452.004 -239.932 -431.74 -172.276 -404.856C-76.3094 -366.77 29.0593 -317.788 109.491 -273.898C184.813 -232.758 221.707 -205.772 238.57 -188.257ZM275.362 -122.778C260.237 -138.562 249.608 -153.735 247.973 -167.483C245.827 -185.915 194.828 -223.695 107.958 -271.047C27.5263 -314.937 -77.638 -363.817 -173.502 -401.801C-318.831 -459.438 -418.374 -483.267 -439.734 -465.344C-443.618 -462.086 -444.844 -457.605 -443.618 -451.495C-434.829 -408.827 -416.228 -372.167 -399.876 -339.886C-372.282 -285.609 -348.469 -238.664 -381.48 -185.406C-391.496 -169.214 -393.846 -154.55 -388.736 -140.395C-369.42 -87.544 -243.714 -43.654 -40.1304 23.4539C-7.52847 34.2483 73.1077 54.2075 161.716 65.4092C233.358 74.4723 330.346 80.0731 385.841 55.5314C403.522 47.6902 412.924 38.4234 414.457 27.0181C418.341 -0.680481 374.395 -37.1367 331.879 -72.3709C311.746 -89.1733 291.101 -106.281 275.362 -122.778Z" fill="#FFA3A3"/>
<path d="M225.897 -186.22C232.54 -179.296 236.424 -173.186 237.139 -168.196C240.308 -143.756 277.304 -113.002 312.972 -83.369C354.466 -48.8476 393.711 -16.3629 389.929 10.8265C388.396 22.3336 379.3 31.6005 362.233 39.2379C332.799 52.9854 285.991 59.91 227.124 59.299C177.046 58.7899 119.2 52.4762 68.6109 42.1911C15.8754 30.8876 -24.1872 19.3805 -35.327 16.2237C-134.257 -16.0574 -206.002 -40.8028 -257.817 -64.0207C-314.334 -89.3771 -344.79 -112.188 -353.477 -135.915C-358.689 -150.171 -356.441 -164.937 -346.527 -181.027C-333.037 -202.819 -329.153 -224.509 -334.263 -249.459C-338.862 -272.065 -350.513 -295.385 -362.88 -320.029C-377.699 -349.764 -394.562 -383.369 -402.431 -422.676C-403.658 -429.601 -401.92 -434.998 -397.219 -438.766C-365.946 -464.224 -209.988 -406.689 -144.375 -380.823C9.4368 -320.334 180.929 -233.165 225.897 -186.22ZM259.215 -127.259C245.52 -141.617 235.709 -155.365 234.176 -167.89C229.372 -204.347 29.8769 -309.031 -145.193 -378.175C-280.813 -431.74 -374.224 -453.532 -395.073 -436.526C-398.854 -433.471 -400.285 -429.092 -399.161 -423.287C-391.393 -384.489 -374.633 -350.986 -359.916 -321.454C-334.979 -271.556 -313.517 -228.481 -343.768 -179.499C-353.171 -164.224 -355.419 -150.375 -350.513 -137.035C-332.322 -87.4423 -213.462 -45.2834 -34.305 13.2705C-23.3696 16.5292 16.693 27.9345 69.3263 39.2379C119.813 49.5231 177.352 55.7349 227.328 56.3459C285.787 56.9569 331.982 50.1341 361.109 36.5903C377.154 29.3602 385.637 20.908 387.068 10.4192C390.542 -15.1409 350.173 -48.6439 311.133 -81.1286C292.532 -96.5054 273.727 -112.188 259.215 -127.259Z" fill="#FFA3A3"/>
<path d="M213.02 -184.794C218.948 -178.583 222.423 -173.186 223.138 -168.603C226.306 -146.505 259.624 -118.807 291.919 -91.9228C329.835 -60.3546 365.606 -30.6193 362.233 -5.77206C360.802 4.71674 352.728 13.1689 337.398 20.0935C310.622 33.4337 266.471 41.4785 213.225 43.006C163.76 44.3298 110.513 39.8491 67.2823 30.5823C38.4618 23.7595 12.605 16.9367 -8.24387 11.4377C-16.3177 9.29922 -23.2673 7.46622 -29.2971 5.93872C-102.473 -17.6865 -177.386 -42.8393 -229.099 -66.4645C-279.586 -89.5806 -306.976 -110.456 -315.05 -132.452C-320.058 -145.894 -317.911 -159.845 -308.611 -174.917C-281.835 -218.298 -300.742 -256.892 -322.613 -301.699C-335.796 -328.583 -350.718 -359.031 -357.565 -394.469C-359.711 -408.929 -347.958 -413.715 -337.738 -415.243C-283.981 -423.186 -134.768 -367.992 -23.3695 -318.196C77.6045 -273.287 180.725 -218.501 213.02 -184.794ZM242.863 -131.841C230.599 -144.672 222.014 -156.892 220.379 -168.196C216.699 -192.33 116.032 -253.023 -24.4938 -315.752C-90.3109 -345.08 -156.128 -370.742 -210.09 -388.053C-270.593 -407.401 -314.641 -415.955 -337.329 -412.493C-350.615 -410.558 -356.339 -404.754 -354.806 -394.876C-347.958 -359.845 -333.139 -329.601 -320.058 -302.819C-297.778 -257.3 -278.564 -218.094 -306.158 -173.389C-315.05 -159.031 -316.992 -145.996 -312.393 -133.267C-296.551 -90.2935 -204.367 -53.6336 -28.5818 3.18924C-22.6541 4.71674 -15.7045 6.54974 -7.63068 8.68823C13.116 14.1872 38.9727 21.01 67.7933 27.8328C110.82 37.0996 163.862 41.5803 213.122 40.2564C265.96 38.8308 309.702 30.786 336.172 17.6495C350.582 11.1322 358.145 3.39291 359.371 -6.07755C362.539 -29.3973 325.645 -60.0491 290.079 -89.7843C272.603 -104.346 255.638 -118.501 242.863 -131.841Z" fill="#FFA3A3"/>
<path d="M200.245 -182.962C205.151 -177.87 208.319 -173.084 209.034 -169.112C212.305 -149.357 241.943 -124.611 270.763 -100.579C303.468 -73.2874 337.296 -44.9779 334.332 -22.4728C333.106 -13.1042 325.952 -5.46667 312.359 0.846985C261.463 28.0364 143.83 36.5903 65.6471 18.8714C52.9742 15.5109 41.0168 12.2523 29.3659 9.19727C8.10818 3.39279 -10.2879 -1.59702 -23.574 -4.44836H-23.6761C-109.32 -31.7396 -162.26 -50.986 -200.585 -68.9086C-245.145 -89.6826 -269.366 -108.827 -276.827 -128.888C-281.528 -141.617 -279.688 -154.652 -270.899 -168.807C-246.678 -208.013 -263.336 -242.839 -282.652 -283.267C-294.099 -307.3 -307.18 -334.591 -313.108 -366.261C-314.334 -377.463 -307.589 -384.184 -292.974 -386.22C-271.206 -389.275 -230.837 -381.943 -176.159 -364.835C-127.921 -349.764 -68.951 -327.157 -10.2879 -301.19C47.0465 -275.935 100.293 -249.153 139.742 -226.037C161.716 -213.104 187.061 -196.607 200.245 -182.962ZM226.715 -136.322C215.78 -147.727 208.115 -158.522 206.479 -168.603C204.537 -179.499 180.418 -199.051 138.414 -223.797C99.0666 -246.913 45.9223 -273.593 -11.3099 -298.848C-110.036 -342.432 -242.896 -390.803 -292.566 -383.674C-305.75 -381.841 -311.575 -376.241 -310.553 -366.668C-304.728 -335.507 -291.748 -308.318 -280.302 -284.489C-260.679 -243.45 -243.816 -208.013 -268.753 -167.585C-277.031 -154.143 -278.871 -141.821 -274.476 -129.907C-259.248 -89.1734 -170.743 -54.041 -22.8586 -6.99417C-9.57251 -4.14285 8.82358 0.846954 30.1835 6.65143C41.7321 9.80826 53.7918 13.0669 66.3624 16.3256C143.933 33.9427 260.748 25.4905 311.235 -1.49521C324.01 -7.40152 330.653 -14.3261 331.777 -22.7783C334.537 -43.9596 301.321 -71.76 269.128 -98.6439C253.492 -111.577 238.264 -124.306 226.715 -136.322Z" fill="#FFA3A3"/>
<path d="M187.368 -181.332C191.558 -176.953 194.318 -172.982 194.931 -169.52C198.201 -152.208 224.262 -130.314 249.506 -109.235C278.735 -84.6928 308.987 -59.4382 306.432 -39.0716C305.41 -30.7213 299.073 -23.8985 287.32 -18.2977C265.858 -5.77222 227.533 5.02206 185.017 10.3174C139.845 16.02 95.7963 14.8999 64.2164 7.16055L55.3249 4.51288C26.9132 -3.8374 0.136658 -11.7804 -17.6462 -14.8354H-17.8506C-163.895 -60.3547 -225.829 -91.3119 -238.604 -125.324C-243.101 -137.34 -241.363 -149.662 -233.187 -162.901C-211.623 -197.829 -226.033 -228.99 -242.59 -265.039C-252.401 -286.322 -263.541 -310.355 -268.548 -338.155V-338.257C-269.366 -348.949 -262.416 -355.365 -248.006 -357.3C-201.505 -363.613 -87.9602 -323.695 2.79388 -284.184C52.7699 -262.493 99.3733 -239.377 134.019 -219.112C153.437 -207.809 175.819 -193.349 187.368 -181.332ZM210.67 -140.803C201.063 -150.782 194.318 -160.253 192.682 -169.011C188.799 -188.053 108.571 -235.507 1.87408 -281.943C-49.5328 -304.347 -101.246 -323.797 -143.762 -336.729C-191.796 -351.292 -227.668 -357.605 -247.7 -354.856C-260.781 -353.023 -266.913 -347.727 -266.198 -338.359C-261.292 -310.864 -250.255 -286.933 -240.443 -265.854C-223.58 -229.194 -208.966 -197.524 -231.143 -161.475C-238.91 -148.848 -240.546 -137.239 -236.355 -126.037C-221.945 -87.8496 -138.345 -54.8557 -17.2374 -16.9738C0.647675 -13.9189 27.5264 -5.97589 55.8359 2.47623L64.7274 5.1239C96.0007 12.7614 139.743 13.8815 184.609 8.17889C226.817 2.88358 264.734 -7.8089 286.196 -20.2325C297.234 -25.5278 303.059 -31.6378 304.081 -39.1735C306.534 -58.2162 276.793 -83.0634 247.973 -107.198C234.278 -118.909 220.89 -130.11 210.67 -140.803Z" fill="#FFA3A3"/>
<path d="M174.491 -179.703C178.068 -176.037 180.214 -172.676 180.929 -169.825C184.2 -154.856 206.684 -136.017 228.35 -117.687C254.105 -95.9962 280.779 -73.5929 278.633 -55.5685C277.713 -48.2365 272.399 -42.3302 262.383 -37.4422C225.386 -13.5114 122.879 11.5395 62.6832 -4.34647C35.4979 -13.5114 7.39273 -22.6764 -11.821 -25.0186H-12.0254C-132.213 -61.6785 -188.526 -90.4972 -200.381 -121.454C-204.673 -132.758 -203.14 -144.367 -195.577 -156.79C-176.67 -187.544 -188.73 -214.937 -202.731 -246.607C-210.908 -265.039 -220.106 -285.915 -224.091 -309.947V-310.151C-224.296 -320.436 -217.244 -326.648 -202.936 -328.481C-160.114 -333.98 -61.8992 -300.477 15.8754 -267.279C81.2837 -239.173 152.722 -202.513 174.491 -179.703ZM194.522 -145.181C186.346 -153.735 180.52 -161.78 178.885 -169.316C174.899 -185.915 106.016 -226.241 15.0578 -265.039C-62.4102 -298.135 -160.216 -331.536 -202.527 -326.037C-215.711 -324.306 -221.945 -319.112 -221.843 -310.049C-217.857 -286.322 -208.659 -265.65 -200.585 -247.32C-186.379 -215.141 -174.115 -187.239 -193.533 -155.467C-200.79 -143.654 -202.22 -132.758 -198.235 -122.065C-186.686 -91.821 -130.782 -63.4096 -11.4121 -27.0552C8.00595 -24.6112 36.2133 -15.4463 63.3986 -6.28128C122.879 9.29916 224.569 -15.5481 261.361 -39.377L261.463 -39.4789C270.763 -44.0613 275.669 -49.4585 276.487 -55.9758C278.531 -72.7783 252.367 -94.876 227.022 -116.159C215.064 -126.139 203.413 -135.915 194.522 -145.181Z" fill="#FFA3A3"/>
<path d="M34.4059 87.1519C44.2171 87.7629 54.1306 88.6794 64.044 89.9014C120.152 96.9279 155.105 116.785 171.15 150.798C185.049 180.227 182.597 215.665 180.45 246.928C179.02 267.804 177.691 287.559 181.575 302.121C194.452 350.798 211.213 362.406 221.228 369.433C227.054 373.506 230.835 376.154 230.018 383.588C229.2 390.92 201.708 398.659 143.454 407.926C118.312 411.897 99.3032 405.991 83.9731 401.205C76.308 398.761 69.665 396.724 63.8396 396.419C47.5897 395.502 43.0929 396.928 33.0772 400.288C24.799 403.038 12.2283 407.111 -14.3438 412.101C-37.7477 416.48 -73.8245 415.461 -108.47 409.555C-128.195 406.195 -146.796 401.409 -163.761 395.299C-182.77 388.476 -199.327 380.227 -213.022 370.655C-238.265 353.038 -253.186 331.347 -257.274 306.5C-261.26 281.958 -259.114 257.213 -250.631 232.977C-242.251 208.944 -228.249 186.541 -208.934 166.582C-180.828 137.457 -142.503 114.952 -98.2504 101.409C-74.6421 94.1784 -49.2964 89.4941 -22.9286 87.5593C-4.32814 86.0318 14.8856 85.9299 34.4059 87.1519ZM120.867 408.028C127.817 408.435 135.278 408.231 143.352 406.908C169.821 402.732 189.546 398.863 203.752 395.197C224.192 389.901 228.791 385.93 229.098 383.486C229.813 376.663 226.645 374.321 220.717 370.248C210.599 363.221 193.634 351.409 180.655 302.325C176.771 287.559 178.1 267.804 179.531 246.826C181.677 215.665 184.13 180.329 170.332 151.103C154.491 117.498 119.641 97.7425 63.9418 90.7161C34.0992 86.9482 4.97211 86.1336 -22.8264 88.2721C-49.092 90.3087 -74.4377 94.9931 -97.9438 102.121C-141.992 115.563 -180.113 137.967 -208.218 166.989C-227.432 186.846 -241.433 209.148 -249.711 233.079C-258.092 257.111 -260.238 281.755 -256.252 306.093C-252.164 330.736 -237.447 352.121 -212.408 369.637C-198.816 379.107 -182.361 387.356 -163.352 394.178C-146.387 400.288 -127.889 405.074 -108.164 408.435C-73.6201 414.341 -37.7477 415.36 -14.446 410.981C12.1262 405.991 24.5946 401.918 32.8728 399.168C42.9907 395.808 47.5897 394.28 63.9418 395.299H64.044C70.0738 395.808 76.7169 397.844 84.3819 400.288C94.6019 403.445 106.559 407.213 120.867 408.028Z" fill="#FFA3A3"/>
<path d="M28.274 105.074C36.2457 105.584 44.2173 106.296 52.189 107.213C102.88 113.017 134.971 130.431 150.404 160.37C163.792 186.337 162.668 218.007 161.748 245.909C161.032 265.359 160.419 283.689 164.814 297.437C178.1 341.225 194.248 352.732 203.752 359.555C209.578 363.73 213.359 366.378 212.644 373.71C212.337 377.783 204.57 382.264 189.751 387.05C176.363 391.327 157.762 395.604 135.789 399.575C112.896 403.751 95.5219 398.863 81.6227 394.993C74.8774 393.16 69.052 391.531 63.7376 391.123C46.8745 390.003 42.5821 391.123 29.9093 394.28C21.4266 396.419 9.77576 399.372 -11.6864 403.14C-33.5573 407.009 -67.1812 406.093 -99.4766 400.696C-117.873 397.539 -135.247 393.16 -151.088 387.559C-168.871 381.245 -184.303 373.608 -196.976 364.85C-219.869 348.964 -233.461 329.616 -237.345 307.213C-241.229 284.708 -239.491 261.999 -232.031 239.799C-224.57 217.702 -211.999 197.131 -194.523 178.7C-169.28 152.121 -134.736 131.347 -94.7754 118.822C-73.4155 112.101 -50.5226 107.722 -26.6076 105.685C-8.82474 104.056 9.57137 103.852 28.274 105.074ZM112.589 399.881C119.641 400.288 127.306 399.983 135.687 398.455C181.984 390.207 211.213 380.634 211.724 373.506C212.337 366.785 208.965 364.341 203.139 360.268C193.43 353.343 177.18 341.836 163.792 297.742C159.397 283.893 160.01 265.461 160.726 245.909C161.748 218.109 162.77 186.643 149.586 160.879C134.358 131.245 102.472 114.036 52.0868 108.231C25.0036 105.074 -1.36411 104.463 -26.5054 106.602C-50.3181 108.639 -73.211 113.017 -94.4688 119.637C-134.327 132.162 -168.666 152.732 -193.808 179.209C-211.182 197.539 -223.752 218.007 -231.111 240.003C-238.571 262.101 -240.309 284.708 -236.425 307.009C-232.542 329.107 -219.051 348.252 -196.363 364.036C-179.602 375.645 -149.248 391.327 -99.2722 399.779C-67.1812 405.176 -33.6595 406.195 -11.7886 402.223C9.57135 398.455 21.2222 395.502 29.7048 393.364C42.1733 390.207 46.7723 389.087 63.8398 390.105C69.2564 390.41 75.1841 392.04 81.9293 393.975C90.6164 396.317 100.734 399.168 112.589 399.881Z" fill="#FFA3A3"/>
<path d="M21.9373 122.895C28.0694 123.303 34.2014 123.812 40.4356 124.423C85.7104 129.107 114.94 143.975 129.657 169.84C142.534 192.345 142.636 220.248 142.841 244.789C142.943 262.712 143.045 279.718 147.951 292.447C161.645 331.347 176.975 342.549 186.174 349.27C191.999 353.547 195.883 356.296 195.269 363.425C194.758 373.099 160.112 384.402 128.124 390.818C107.479 395.197 91.6381 391.429 78.9652 388.374C73.242 387.05 68.2342 385.828 63.533 385.523C44.3193 384.199 40.7422 384.912 20.9153 388.578C13.4547 390.003 4.15446 391.734 -9.13159 393.975C-22.7243 396.317 -41.2225 396.622 -61.356 395.095C-84.0446 393.364 -106.733 389.29 -126.969 383.282C-150.986 376.154 -170.711 366.785 -185.836 355.278C-203.415 341.836 -214.044 325.848 -217.518 307.722C-221.402 287.254 -219.971 266.683 -213.43 246.317C-206.992 226.154 -195.75 207.417 -180.113 190.512C-157.731 166.378 -126.969 147.539 -91.3008 135.93C-56.8592 124.83 -18.8407 120.451 21.9373 122.895ZM103.902 391.734C111.158 392.142 119.13 391.836 128.021 390.003C166.142 382.366 194.043 371.266 194.452 363.425C194.963 356.806 191.488 354.26 185.663 350.085C176.362 343.364 160.93 332.06 147.133 292.854C142.227 279.922 142.125 262.916 142.023 244.891C141.921 220.451 141.716 192.651 128.941 170.349C114.327 144.789 85.4038 130.024 40.3334 125.339C-7.3942 120.146 -51.5448 124.015 -90.892 136.745C-126.458 148.252 -157.016 167.091 -179.398 191.021C-194.932 207.722 -206.174 226.459 -212.613 246.52C-219.051 266.683 -220.482 287.152 -216.599 307.417C-213.124 325.339 -202.597 341.225 -185.223 354.463C-170.302 365.869 -150.577 375.339 -126.662 382.366C-106.426 388.374 -83.8402 392.447 -61.1517 394.178C-41.0182 395.706 -22.6221 395.298 -9.13159 393.058C4.15446 390.818 13.4547 389.087 20.9153 387.661C40.8444 383.893 44.4214 383.282 63.7373 384.606C68.5408 384.912 73.4464 386.134 79.2718 387.457C86.4259 389.189 94.4997 391.123 103.902 391.734Z" fill="#FFA3A3"/>
<path d="M15.9077 140.818C20.0979 141.123 24.3903 141.429 28.6828 141.836C68.6432 145.4 94.9087 157.824 109.012 179.718C121.276 198.863 122.605 221.877 123.934 244.178C124.853 260.573 125.773 276.052 131.292 287.763C145.294 321.877 159.397 332.264 168.697 339.189C174.829 343.771 178.611 346.52 178.1 353.445C177.895 362.305 152.652 374.932 120.663 382.366C101.961 386.948 87.6524 384.301 76.1038 382.162C71.7092 381.347 67.519 380.533 63.6353 380.329L61.6935 380.227C39.1072 378.496 37.2676 378.394 -6.1676 385.217C-18.4317 387.152 -35.7036 387.457 -53.793 386.134C-74.5397 384.606 -95.2864 380.94 -113.785 375.747C-135.758 369.535 -153.95 361.184 -167.747 350.899C-183.894 338.985 -193.91 324.728 -197.283 308.537C-201.064 290.207 -200.144 271.571 -194.523 253.241C-189.004 235.013 -179.193 218.007 -165.294 202.732C-145.671 181.144 -118.793 164.036 -87.3148 153.445C-56.4503 142.651 -21.5999 138.578 15.9077 140.818ZM94.6021 383.791C102.165 384.301 110.648 383.791 120.357 381.449C151.528 374.321 176.976 361.694 177.18 353.343C177.589 346.826 174.012 344.178 168.084 339.799C159.295 333.282 144.476 322.284 130.474 288.068C124.956 276.154 124.036 260.675 123.116 244.178C121.787 221.979 120.459 199.066 108.297 180.125C94.3977 158.435 68.3365 146.215 28.5806 142.651C-13.7304 138.476 -52.771 142.345 -87.417 154.056C-118.69 164.647 -145.569 181.551 -164.987 203.038C-178.784 218.211 -188.493 235.115 -194.012 253.241C-199.531 271.47 -200.451 289.901 -196.772 308.129C-193.399 324.117 -183.485 338.272 -167.542 349.983C-153.745 360.166 -135.656 368.415 -113.785 374.626C-95.3886 379.922 -74.6419 383.486 -53.9974 385.013C-36.0101 386.337 -18.7383 386.032 -6.57642 384.097C36.961 377.274 38.8006 377.376 61.4891 379.107L63.4309 379.209C67.3145 379.514 71.5048 380.227 76.0016 381.144C81.6226 382.264 87.6524 383.384 94.6021 383.791Z" fill="#FFA3A3"/>
<path d="M9.87781 158.639C12.2284 158.74 14.4768 158.944 16.8274 159.148C94.7042 164.749 99.9164 206.602 104.618 243.669C106.457 258.333 108.195 272.182 114.327 282.977C128.43 312.101 141.819 322.182 150.71 328.903C157.046 333.69 160.93 336.541 160.624 343.364C160.624 347.641 155.718 353.343 147.133 359.046C138.037 365.054 125.875 370.248 112.896 373.812C95.7262 378.903 83.0533 377.274 71.9135 375.848C68.9497 375.441 66.1903 375.136 63.4309 374.932C59.3428 374.626 55.7658 374.219 52.5976 373.914C38.0851 372.386 29.2959 371.47 -3.71486 376.154C-24.7682 379.209 -64.1153 377.885 -101.01 367.905C-120.939 362.508 -137.495 355.278 -150.168 346.317C-164.987 335.93 -174.185 323.404 -177.558 309.148C-181.237 292.855 -180.726 276.256 -176.127 259.861C-171.528 243.567 -163.148 228.292 -151.088 214.647C-134.327 195.502 -111.128 180.329 -84.0444 170.757C-56.0415 160.573 -24.3594 156.602 9.87781 158.639ZM84.1776 376.154C92.3536 376.663 101.552 376.256 112.794 372.895C140.694 365.36 160.01 351.205 159.908 343.262C160.215 336.846 156.535 334.097 150.301 329.413C141.41 322.692 127.919 312.508 113.714 283.282C107.581 272.488 105.844 258.537 103.902 243.771C101.552 225.034 99.0988 205.685 87.5502 190.003C74.4685 172.182 51.269 162.406 16.8274 159.861C-20.0669 156.806 -53.8953 160.573 -83.84 171.164C-110.821 180.736 -133.918 195.808 -150.577 214.85C-162.534 228.496 -170.813 243.567 -175.412 259.759C-180.011 276.052 -180.42 292.447 -176.842 308.639C-172.448 326.969 -155.789 351.918 -100.703 366.785C-63.911 376.765 -24.666 378.089 -3.71486 375.034C29.2959 370.349 38.0851 371.266 52.6998 372.793C55.868 373.099 59.445 373.506 63.5331 373.812C66.2925 374.015 69.0519 374.423 72.0157 374.728C75.7971 375.441 79.7829 375.95 84.1776 376.154Z" fill="#FFA3A3"/>
<path d="M7.5271 176.561C35.7344 178.292 55.3569 185.828 67.4166 199.576C78.352 212.101 81.929 228.089 85.3017 243.466C88.1633 256.297 90.8205 268.415 97.5657 278.089C111.669 302.325 124.342 311.897 132.723 318.313C139.366 323.405 143.454 326.46 143.249 333.18C143.556 342.244 127.408 357.824 105.231 365.054C88.0611 371.368 76.1036 370.35 64.5549 369.331L63.2264 369.229C57.6053 368.72 53.0063 368.007 48.5095 367.295C36.4498 365.36 25.1056 363.629 -1.05775 366.887C-20.1693 369.331 -55.5306 368.109 -88.0304 359.861C-115.522 352.834 -149.862 338.476 -157.731 309.555C-164.885 281.042 -157.22 250.696 -136.78 226.358C-122.881 209.759 -103.463 196.419 -80.5697 187.763C-55.5306 178.292 -27.1189 174.525 4.05228 176.358C4.46107 176.358 4.76768 176.358 5.17648 176.46C5.89189 176.46 6.70949 176.561 7.5271 176.561ZM71.6068 369.229C81.1114 369.84 91.4337 369.433 105.026 364.443C128.737 356.704 142.841 341.022 142.534 333.18C142.738 326.765 138.753 323.812 132.212 318.822C123.831 312.407 111.056 302.732 96.8503 278.394C90.1051 268.618 87.3457 256.5 84.4841 243.567C81.1114 228.191 77.6366 212.407 66.8034 199.983C54.5393 185.93 34.3036 178.496 4.86987 177.071C4.46107 177.071 4.15446 177.071 3.74567 176.969C-27.3233 175.136 -55.6328 178.904 -80.5697 188.272C-103.36 196.826 -122.676 210.166 -136.473 226.663C-146.591 238.781 -153.541 252.121 -157.118 266.378C-160.695 280.736 -160.797 295.095 -157.22 309.25C-149.453 337.865 -115.318 352.121 -88.0304 359.046C-55.5306 367.295 -20.2714 368.517 -1.26215 366.073C25.0034 362.814 36.4498 364.545 48.5095 366.48C53.0063 367.193 57.6053 367.906 63.2264 368.415L64.5549 368.517C66.9056 368.924 69.2562 369.128 71.6068 369.229Z" fill="#FFA3A3"/>
<path d="M0.781845 194.077C21.4263 195.299 36.552 200.594 46.7721 209.962C56.9921 219.331 61.4889 231.857 65.7813 243.873C69.4606 254.158 73.3442 264.85 80.7026 273.303C94.3975 292.447 106.253 301.51 114.122 307.417C121.481 312.916 125.875 316.276 125.875 323.099C126.386 331.755 115.655 349.066 97.5657 356.5C84.7906 362.712 74.4684 364.85 63.1241 363.832C57.0943 363.221 51.8821 362.101 46.4655 360.879C34.9168 358.333 22.8571 355.685 1.59943 357.824C-15.6724 359.657 -46.9458 358.537 -75.1531 352.019C-99.579 346.317 -130.239 334.402 -137.904 310.166C-144.956 285.726 -139.335 259.453 -122.574 238.17C-111.434 224.117 -95.7976 212.61 -77.1971 204.973C-56.5526 196.521 -32.9443 192.753 -6.78101 193.771C-4.12379 193.771 -1.67097 193.873 0.781845 194.077ZM65.1682 363.323C75.5926 363.934 85.4038 361.694 97.2591 355.889C115.144 348.455 125.671 331.551 125.16 323.099C125.16 316.582 121.072 313.527 113.713 307.926C105.844 301.918 93.8865 292.956 80.1916 273.71C72.731 265.156 68.9496 254.463 65.1682 244.077C60.8757 232.06 56.3789 219.637 46.2611 210.37C34.9168 199.983 17.5427 194.688 -6.78101 194.382C-32.8421 193.364 -56.3482 197.132 -76.8905 205.482C-95.3888 213.017 -111.025 224.423 -122.063 238.476C-138.722 259.657 -144.241 285.624 -137.291 309.861C-129.728 333.893 -99.2724 345.604 -75.0509 351.307C-46.9458 357.824 -15.6724 358.944 1.49724 357.111C22.9594 354.871 34.9168 357.62 46.5676 360.166C51.9843 361.388 57.1965 362.508 63.1241 363.119C63.8395 363.323 64.5549 363.323 65.1682 363.323Z" fill="#FFA3A3"/>
<path d="M-5.65668 211.185C27.5585 213.221 36.7565 228.7 46.3634 244.993C51.0646 253.038 55.9702 261.388 63.9418 268.415C76.6147 282.468 87.1414 290.105 94.7042 295.808C103.493 302.325 108.297 305.889 108.501 312.916C108.91 317.6 107.377 324.525 104.515 330.838C101.041 338.476 95.8284 344.586 90.003 347.844C80.6005 354.362 72.6289 359.352 63.022 358.333C56.9922 357.62 51.269 355.991 45.137 354.26C34.0993 351.103 21.6308 347.539 4.25677 348.761C-7.80289 349.677 -35.2948 349.677 -62.1736 344.178C-76.175 341.327 -87.8259 337.356 -96.9217 332.366C-107.653 326.46 -114.705 319.229 -117.975 310.777C-124.925 290.309 -121.45 268.109 -108.266 249.881C-99.9877 238.272 -87.9281 228.7 -73.62 222.081C-57.6767 214.749 -39.1784 211.083 -18.5339 211.083C-13.9349 210.981 -9.64249 210.981 -5.65668 211.185ZM64.1463 357.926C73.0377 358.435 80.7027 353.751 89.6964 347.437C103.085 339.8 108.706 320.961 107.99 313.018C107.786 306.297 103.085 302.732 94.3976 296.317C86.7326 290.614 76.3081 282.875 63.5331 268.924C55.4592 261.796 50.5536 253.445 45.8524 245.4C40.4357 236.134 35.3257 227.478 26.0255 221.164C15.601 214.036 1.39516 211.083 -18.5339 211.694C-39.0762 211.694 -57.5745 215.36 -73.4156 222.59C-87.7237 229.107 -99.5789 238.679 -107.857 250.187C-120.837 268.313 -124.414 290.309 -117.464 310.574C-114.296 318.924 -107.346 326.052 -96.7173 331.857C-87.7237 336.847 -76.0728 340.716 -62.1736 343.669C-35.397 349.168 -7.90509 349.168 4.05237 348.252C21.5287 347.03 34.0993 350.594 45.137 353.751C51.269 355.482 56.9922 357.111 62.9198 357.824C63.4308 357.926 63.7375 357.926 64.1463 357.926Z" fill="#FFA3A3"/>
<path d="M-11.5845 227.681C8.54903 228.903 17.3383 237.457 27.8649 247.641C33.3837 252.936 39.107 258.435 47.0786 263.73C57.4009 272.182 65.7813 277.987 72.6287 282.671C84.2796 290.716 90.7182 295.095 91.127 302.936C92.149 311.592 90.616 331.857 82.3378 339.392C81.8268 340.003 81.3158 340.614 80.8048 341.225C75.5925 347.539 70.2781 353.954 62.8175 353.038C56.9921 352.223 50.6556 349.983 43.9104 347.641C32.9749 343.771 20.6087 339.392 6.81162 339.8C-8.21185 340.309 -83.6358 341.225 -98.1483 311.388C-105.2 294.891 -103.871 276.663 -94.3669 261.286C-88.7458 252.121 -80.5698 244.688 -70.2475 239.087C-59.0055 232.977 -45.6172 229.413 -30.3894 228.394C-23.1331 227.58 -16.8989 227.376 -11.5845 227.681ZM63.6351 352.529C70.4825 352.936 75.5925 346.724 80.4982 340.818C81.0092 340.207 81.5202 339.596 82.0312 338.985C90.2072 331.653 91.7402 311.592 90.7182 302.936C90.3094 295.4 83.8708 291.022 72.4243 283.079C65.5769 278.394 57.1965 272.59 46.8742 264.036C38.8004 258.741 33.1794 253.242 27.6605 247.946C14.3745 235.115 3.95001 224.932 -30.185 228.903C-45.3106 229.82 -58.5967 233.384 -69.8387 239.494C-80.0588 245.095 -88.1326 252.529 -93.7537 261.592C-103.156 276.765 -104.485 294.891 -97.5351 311.185C-91.7096 323.099 -75.4598 331.347 -49.092 335.93C-25.8925 339.901 -2.18202 339.596 6.91383 339.29C20.8131 338.883 33.2815 343.262 44.217 347.132C50.9622 349.474 57.2987 351.714 63.0219 352.529C63.1241 352.529 63.4307 352.529 63.6351 352.529Z" fill="#FFA3A3"/>
<path d="M-15.4679 242.345C-3.61266 243.058 5.68758 247.437 18.5648 253.547C22.2441 255.278 26.0255 257.009 30.2157 258.944C33.2817 260.675 36.1433 262.305 38.8005 263.73C62.2044 276.867 72.8333 282.773 73.7531 292.855C74.8773 300.288 78.1477 322.997 74.6729 330.736C72.5267 339.087 69.2563 348.557 62.7155 347.641C57.1966 346.826 50.1448 343.771 42.582 340.614C31.9531 336.134 19.9956 331.144 9.46899 330.736C7.42498 330.635 5.07437 330.635 2.31496 330.635C-9.0293 330.431 -26.3012 330.227 -42.0401 327.783C-60.8449 324.932 -73.0068 319.637 -78.219 311.999C-85.5775 299.576 -86.4973 284.81 -80.8762 272.386C-74.5398 258.639 -60.845 249.168 -42.2445 245.808C-31.309 242.855 -22.8264 241.836 -15.4679 242.345ZM63.3286 347.132C69.2563 347.539 72.3223 338.476 74.3663 330.533C77.8411 322.997 74.4685 300.288 73.4465 292.855C72.5267 283.079 61.8978 277.071 38.6983 264.138C36.0411 262.61 33.1795 261.083 30.1135 259.352C25.8211 257.417 22.0397 255.686 18.4626 253.954C-2.28406 244.178 -13.7305 238.679 -42.0401 246.215C-60.5383 249.576 -74.131 258.944 -80.3652 272.59C-85.9863 284.912 -85.0665 299.474 -77.8102 311.796C-72.7002 319.229 -60.6405 324.525 -41.9379 327.376C-26.199 329.718 -9.0293 330.024 2.31496 330.125C5.07437 330.125 7.52718 330.227 9.46899 330.227C20.0978 330.533 32.1575 335.624 42.7864 340.105C50.247 343.262 57.401 346.215 62.8176 347.03C63.022 347.132 63.1243 347.132 63.3286 347.132Z" fill="#FFA3A3"/>
<path d="M-9.02946 250.288C-2.07983 250.696 5.2786 252.02 13.4546 254.158C42.0708 263.425 54.8458 271.979 56.4811 282.773C57.2987 287.763 60.1603 297.335 62.6131 305.787C64.5549 312.508 66.3945 318.822 67.1099 322.081C68.0297 324.83 68.4385 328.7 68.2341 332.366C68.0297 336.337 67.1099 339.392 65.7813 341.022C64.9637 342.04 63.9417 342.345 62.7153 342.142C57.5031 341.225 49.2248 337.152 40.5378 332.977C30.2155 327.987 19.4845 322.692 12.126 321.673C8.14022 321.164 1.80379 321.062 -5.55464 321.062C-23.8485 320.961 -48.8876 320.757 -58.2901 312.61C-66.6705 304.26 -70.8608 292.855 -69.2255 282.773C-67.8969 274.321 -62.5825 267.498 -53.9977 263.018C-44.0842 256.398 -34.784 252.529 -24.9727 251.001C-20.0671 250.187 -14.7527 249.983 -9.02946 250.288ZM63.0219 341.734C63.9417 341.836 64.6571 341.429 65.3725 340.614C68.2341 337.356 68.4385 327.681 66.7011 322.081C65.9857 318.822 64.1461 312.508 62.2043 305.787C59.7515 297.335 56.8899 287.763 56.0723 282.671C54.5392 272.081 41.7642 263.629 13.3524 254.362C-1.36443 250.492 -13.9351 249.474 -24.9727 251.205C-34.784 252.732 -43.8798 256.602 -53.7933 263.221C-62.3781 267.6 -67.5903 274.321 -68.8167 282.671C-70.3497 292.651 -66.2617 303.954 -57.9835 312.203C-48.6833 320.248 -23.7463 320.451 -5.55464 320.553C1.80379 320.553 8.14022 320.655 12.2282 321.164C19.5867 322.183 30.3177 327.376 40.7422 332.468C49.4292 336.745 57.6052 340.716 62.8175 341.633C62.8175 341.734 62.9197 341.734 63.0219 341.734Z" fill="#FFA3A3"/>
<path d="M-5.96324 249.168C-5.14563 249.27 -4.22583 249.27 -3.40823 249.372C10.6954 250.696 21.5287 253.853 28.7849 258.639C34.5082 262.407 37.983 267.091 39.005 272.59C40.7424 281.653 52.9043 305.991 59.2407 313.425C61.5913 316.174 63.5331 320.553 64.5551 325.543C65.4749 330.024 65.3727 333.995 64.3507 335.726C63.8397 336.541 63.2265 336.846 62.5111 336.643C57.1967 335.523 45.9546 329.209 35.1214 323.099C26.7409 318.415 18.7693 313.934 14.6813 312.508C10.0822 310.981 0.270996 311.796 -10.1535 312.814C-20.8845 313.73 -31.9222 314.749 -38.463 313.221C-45.3104 311.592 -52.8733 307.009 -58.2899 301.307C-64.6263 294.688 -67.3857 287.254 -65.9549 280.431C-64.3197 272.488 -56.7569 264.036 -45.617 257.824C-33.864 251.409 -19.8625 248.354 -5.96324 249.168ZM62.8177 336.439C63.3287 336.439 63.7375 336.235 64.0441 335.624C66.0881 332.264 64.2485 319.739 59.0363 313.629C52.6998 306.195 40.538 281.755 38.6984 272.692C37.6764 267.295 34.2016 262.61 28.5805 258.944C21.3243 254.158 10.5932 251.103 -3.40823 249.677C-18.1251 248.252 -33.0464 251.307 -45.4126 258.231C-56.2459 264.24 -64.0131 272.794 -65.5461 280.533C-66.8747 287.254 -64.2175 294.484 -57.9833 301.103C-52.5667 306.806 -45.106 311.286 -38.2586 312.916C-31.82 314.443 -20.7823 313.527 -10.0513 312.508C0.373192 311.592 10.1844 310.675 14.8857 312.305C18.9737 313.73 26.9453 318.109 35.3258 322.895C46.159 329.005 57.4011 335.217 62.6133 336.439C62.6133 336.337 62.7155 336.439 62.8177 336.439Z" fill="#FFA3A3"/>
</g>
<defs>
<clipPath id="clip0_1901_956">
<rect width="418" height="500" fill="white"/>
</clipPath>
</defs>
</svg>
