<svg width="24" height="24" viewBox="0 0 24 24" fill="none" xmlns="http://www.w3.org/2000/svg">
<path d="M6.16145 16.3291C5.84505 16.6456 5.82998 17.2106 6.16899 17.542C6.50046 17.8735 7.06547 17.866 7.38188 17.5496L11.9924 12.9315L16.6104 17.5496C16.9343 17.8735 17.4918 17.8735 17.8233 17.542C18.1472 17.203 18.1548 16.6531 17.8233 16.3291L13.2128 11.7111L17.8233 7.10063C18.1548 6.77669 18.1548 6.21921 17.8233 5.88774C17.4843 5.5638 16.9343 5.55627 16.6104 5.8802L11.9924 10.4982L7.38188 5.8802C7.06547 5.5638 6.49293 5.54873 6.16899 5.88774C5.83752 6.21921 5.84505 6.78422 6.16145 7.10063L10.7795 11.7111L6.16145 16.3291Z" fill="#1C1C1E"/>
</svg>
